M48
; DRILL file {KiCad (5.1.9)-1} date 06/01/21 10:03:11
; FORMAT={-:-/ absolute / inch / decimal}
; #@! TF.CreationDate,2021-06-01T10:03:11-07:00
; #@! TF.GenerationSoftware,Kicad,Pcbnew,(5.1.9)-1
; #@! TF.FileFunction,NonPlated,1,2,NPTH
FMAT,2
INCH
T1C0.0689
T2C0.1200
T3C0.1570
%
G90
G05
T1
X1.7688Y-1.9688
X1.7688Y-2.7188
X1.7688Y-3.4688
X2.1688Y-1.9688
X2.1688Y-2.7188
X2.1688Y-3.4688
X2.5188Y-1.9688
X2.5188Y-2.7188
X2.5188Y-3.4688
X2.9188Y-1.9688
X2.9188Y-2.7188
X2.9188Y-3.4688
X3.2688Y-1.9688
X3.2688Y-2.7188
X3.2688Y-3.4688
X3.6688Y-1.9688
X3.6688Y-2.7188
X3.6688Y-3.4688
X4.0188Y-1.9688
X4.0188Y-2.7188
X4.0188Y-3.4688
X4.4188Y-1.9688
X4.4188Y-2.7188
X4.4188Y-3.4688
X4.7688Y-1.9688
X4.7688Y-2.7188
X4.7688Y-3.4688
X5.1688Y-1.9688
X5.1688Y-2.7188
X5.1688Y-3.4688
X5.5188Y-1.9688
X5.5188Y-2.7188
X5.5188Y-3.4688
X5.8938Y-3.4688
X5.9188Y-1.9688
X5.9188Y-2.7188
X5.9188Y-3.4688
X6.2688Y-1.9688
X6.2688Y-2.7188
X6.2688Y-3.4688
X6.2938Y-3.4688
X6.6688Y-1.9688
X6.6688Y-2.7188
X6.6688Y-3.4688
X7.0188Y-1.9688
X7.0188Y-2.7188
X7.0188Y-3.4688
X7.4188Y-1.9688
X7.4188Y-2.7188
X7.4188Y-3.4688
X7.7688Y-1.9688
X7.7688Y-2.7188
X7.7688Y-3.4688
X8.1688Y-1.9688
X8.1688Y-2.7188
X8.1688Y-3.4688
X8.5188Y-1.9688
X8.5188Y-2.7188
X8.5188Y-3.4688
X8.9188Y-1.9688
X8.9188Y-2.7188
X8.9188Y-3.4688
X9.2688Y-1.9688
X9.2688Y-2.7188
X9.2688Y-3.4688
X9.6688Y-1.9688
X9.6688Y-2.7188
X9.6688Y-3.4688
X10.0188Y-1.9688
X10.0188Y-2.7188
X10.0188Y-3.4688
X10.4188Y-1.9688
X10.4188Y-2.7188
X10.4188Y-3.4688
T2
X5.625Y-3.7438
X6.5625Y-3.7438
T3
X1.9688Y-1.9688
X1.9688Y-2.7188
X1.9688Y-3.4688
X2.7188Y-1.9688
X2.7188Y-2.7188
X2.7188Y-3.4688
X3.4688Y-1.9688
X3.4688Y-2.7188
X3.4688Y-3.4688
X4.2188Y-1.9688
X4.2188Y-2.7188
X4.2188Y-3.4688
X4.9688Y-1.9688
X4.9688Y-2.7188
X4.9688Y-3.4688
X5.625Y-3.1438
X5.7188Y-1.9688
X5.7188Y-2.7188
X5.7188Y-3.4688
X6.0938Y-3.4688
X6.4688Y-1.9688
X6.4688Y-2.7188
X6.4688Y-3.4688
X6.5625Y-3.1438
X7.2188Y-1.9688
X7.2188Y-2.7188
X7.2188Y-3.4688
X7.9688Y-1.9688
X7.9688Y-2.7188
X7.9688Y-3.4688
X8.7188Y-1.9688
X8.7188Y-2.7188
X8.7188Y-3.4688
X9.4688Y-1.9688
X9.4688Y-2.7188
X9.4688Y-3.4688
X10.2188Y-1.9688
X10.2188Y-2.7188
X10.2188Y-3.4688
T0
M30
