%TF.GenerationSoftware,KiCad,Pcbnew,(5.1.9)-1*%
%TF.CreationDate,2021-06-01T11:13:14-07:00*%
%TF.ProjectId,dakkadakka,64616b6b-6164-4616-9b6b-612e6b696361,rev?*%
%TF.SameCoordinates,Original*%
%TF.FileFunction,Legend,Bot*%
%TF.FilePolarity,Positive*%
%FSLAX46Y46*%
G04 Gerber Fmt 4.6, Leading zero omitted, Abs format (unit mm)*
G04 Created by KiCad (PCBNEW (5.1.9)-1) date 2021-06-01 11:13:14*
%MOMM*%
%LPD*%
G01*
G04 APERTURE LIST*
%ADD10C,0.350000*%
%ADD11C,0.120000*%
%ADD12C,0.381000*%
%ADD13C,0.150000*%
G04 APERTURE END LIST*
D10*
X162006633Y-75498341D02*
X162006633Y-73498341D01*
X162006633Y-75403103D02*
X162197109Y-75498341D01*
X162578061Y-75498341D01*
X162768538Y-75403103D01*
X162863776Y-75307865D01*
X162959014Y-75117389D01*
X162959014Y-74545960D01*
X162863776Y-74355484D01*
X162768538Y-74260246D01*
X162578061Y-74165008D01*
X162197109Y-74165008D01*
X162006633Y-74260246D01*
X160197109Y-75498341D02*
X160197109Y-74450722D01*
X160292347Y-74260246D01*
X160482823Y-74165008D01*
X160863776Y-74165008D01*
X161054252Y-74260246D01*
X160197109Y-75403103D02*
X160387585Y-75498341D01*
X160863776Y-75498341D01*
X161054252Y-75403103D01*
X161149490Y-75212627D01*
X161149490Y-75022151D01*
X161054252Y-74831675D01*
X160863776Y-74736437D01*
X160387585Y-74736437D01*
X160197109Y-74641199D01*
X159244728Y-75498341D02*
X159244728Y-73498341D01*
X159054252Y-74736437D02*
X158482823Y-75498341D01*
X158482823Y-74165008D02*
X159244728Y-74926913D01*
X157625680Y-75498341D02*
X157625680Y-73498341D01*
X157435204Y-74736437D02*
X156863776Y-75498341D01*
X156863776Y-74165008D02*
X157625680Y-74926913D01*
X155149490Y-75498341D02*
X155149490Y-74450722D01*
X155244728Y-74260246D01*
X155435204Y-74165008D01*
X155816157Y-74165008D01*
X156006633Y-74260246D01*
X155149490Y-75403103D02*
X155339966Y-75498341D01*
X155816157Y-75498341D01*
X156006633Y-75403103D01*
X156101871Y-75212627D01*
X156101871Y-75022151D01*
X156006633Y-74831675D01*
X155816157Y-74736437D01*
X155339966Y-74736437D01*
X155149490Y-74641199D01*
X153339966Y-75498341D02*
X153339966Y-73498341D01*
X153339966Y-75403103D02*
X153530442Y-75498341D01*
X153911395Y-75498341D01*
X154101871Y-75403103D01*
X154197109Y-75307865D01*
X154292347Y-75117389D01*
X154292347Y-74545960D01*
X154197109Y-74355484D01*
X154101871Y-74260246D01*
X153911395Y-74165008D01*
X153530442Y-74165008D01*
X153339966Y-74260246D01*
X151530442Y-75498341D02*
X151530442Y-74450722D01*
X151625680Y-74260246D01*
X151816157Y-74165008D01*
X152197109Y-74165008D01*
X152387585Y-74260246D01*
X151530442Y-75403103D02*
X151720919Y-75498341D01*
X152197109Y-75498341D01*
X152387585Y-75403103D01*
X152482823Y-75212627D01*
X152482823Y-75022151D01*
X152387585Y-74831675D01*
X152197109Y-74736437D01*
X151720919Y-74736437D01*
X151530442Y-74641199D01*
X150578061Y-75498341D02*
X150578061Y-73498341D01*
X150387585Y-74736437D02*
X149816157Y-75498341D01*
X149816157Y-74165008D02*
X150578061Y-74926913D01*
X148959014Y-75498341D02*
X148959014Y-73498341D01*
X148768538Y-74736437D02*
X148197109Y-75498341D01*
X148197109Y-74165008D02*
X148959014Y-74926913D01*
X146482823Y-75498341D02*
X146482823Y-74450722D01*
X146578061Y-74260246D01*
X146768538Y-74165008D01*
X147149490Y-74165008D01*
X147339966Y-74260246D01*
X146482823Y-75403103D02*
X146673300Y-75498341D01*
X147149490Y-75498341D01*
X147339966Y-75403103D01*
X147435204Y-75212627D01*
X147435204Y-75022151D01*
X147339966Y-74831675D01*
X147149490Y-74736437D01*
X146673300Y-74736437D01*
X146482823Y-74641199D01*
X163625680Y-78848341D02*
X163625680Y-76848341D01*
X163625680Y-77610246D02*
X163435204Y-77515008D01*
X163054252Y-77515008D01*
X162863776Y-77610246D01*
X162768538Y-77705484D01*
X162673300Y-77895960D01*
X162673300Y-78467389D01*
X162768538Y-78657865D01*
X162863776Y-78753103D01*
X163054252Y-78848341D01*
X163435204Y-78848341D01*
X163625680Y-78753103D01*
X162006633Y-77515008D02*
X161530442Y-78848341D01*
X161054252Y-77515008D02*
X161530442Y-78848341D01*
X161720919Y-79324532D01*
X161816157Y-79419770D01*
X162006633Y-79515008D01*
X160292347Y-78657865D02*
X160197109Y-78753103D01*
X160292347Y-78848341D01*
X160387585Y-78753103D01*
X160292347Y-78657865D01*
X160292347Y-78848341D01*
X160292347Y-77610246D02*
X160197109Y-77705484D01*
X160292347Y-77800722D01*
X160387585Y-77705484D01*
X160292347Y-77610246D01*
X160292347Y-77800722D01*
X157816157Y-78848341D02*
X157816157Y-76848341D01*
X157339966Y-76848341D01*
X157054252Y-76943580D01*
X156863776Y-77134056D01*
X156768538Y-77324532D01*
X156673300Y-77705484D01*
X156673300Y-77991199D01*
X156768538Y-78372151D01*
X156863776Y-78562627D01*
X157054252Y-78753103D01*
X157339966Y-78848341D01*
X157816157Y-78848341D01*
X155816157Y-78848341D02*
X155816157Y-77515008D01*
X155816157Y-77895960D02*
X155720919Y-77705484D01*
X155625680Y-77610246D01*
X155435204Y-77515008D01*
X155244728Y-77515008D01*
X154578061Y-78848341D02*
X154578061Y-76848341D01*
X154578061Y-77800722D02*
X153435204Y-77800722D01*
X153435204Y-78848341D02*
X153435204Y-76848341D01*
X152482823Y-78848341D02*
X152482823Y-77515008D01*
X152482823Y-76848341D02*
X152578061Y-76943580D01*
X152482823Y-77038818D01*
X152387585Y-76943580D01*
X152482823Y-76848341D01*
X152482823Y-77038818D01*
X150673300Y-77515008D02*
X150673300Y-79134056D01*
X150768538Y-79324532D01*
X150863776Y-79419770D01*
X151054252Y-79515008D01*
X151339966Y-79515008D01*
X151530442Y-79419770D01*
X150673300Y-78753103D02*
X150863776Y-78848341D01*
X151244728Y-78848341D01*
X151435204Y-78753103D01*
X151530442Y-78657865D01*
X151625680Y-78467389D01*
X151625680Y-77895960D01*
X151530442Y-77705484D01*
X151435204Y-77610246D01*
X151244728Y-77515008D01*
X150863776Y-77515008D01*
X150673300Y-77610246D01*
X149816157Y-78753103D02*
X149625680Y-78848341D01*
X149244728Y-78848341D01*
X149054252Y-78753103D01*
X148959014Y-78562627D01*
X148959014Y-78467389D01*
X149054252Y-78276913D01*
X149244728Y-78181675D01*
X149530442Y-78181675D01*
X149720919Y-78086437D01*
X149816157Y-77895960D01*
X149816157Y-77800722D01*
X149720919Y-77610246D01*
X149530442Y-77515008D01*
X149244728Y-77515008D01*
X149054252Y-77610246D01*
X148101871Y-78848341D02*
X148101871Y-76848341D01*
X148101871Y-77610246D02*
X147911395Y-77515008D01*
X147530442Y-77515008D01*
X147339966Y-77610246D01*
X147244728Y-77705484D01*
X147149490Y-77895960D01*
X147149490Y-78467389D01*
X147244728Y-78657865D01*
X147339966Y-78753103D01*
X147530442Y-78848341D01*
X147911395Y-78848341D01*
X148101871Y-78753103D01*
X146482823Y-77515008D02*
X146006633Y-78848341D01*
X145530442Y-77515008D02*
X146006633Y-78848341D01*
X146197109Y-79324532D01*
X146292347Y-79419770D01*
X146482823Y-79515008D01*
D11*
%TO.C,RESET1*%
X244337704Y-75266003D02*
X244827704Y-75756003D01*
X241437704Y-75266003D02*
X244337704Y-75266003D01*
X241437704Y-75266003D02*
X240947704Y-75756003D01*
X241437704Y-80706003D02*
X244337704Y-80706003D01*
X241437704Y-80706003D02*
X240947704Y-80216003D01*
X245607704Y-76946003D02*
X245607704Y-79026003D01*
X244337704Y-80706003D02*
X244827704Y-80216003D01*
X240167704Y-76946003D02*
X240167704Y-79026003D01*
D12*
%TO.C,PM1*%
X234156452Y-43100674D02*
X231616452Y-43100674D01*
X249396452Y-40560674D02*
X231616452Y-40560674D01*
X231616452Y-40560674D02*
X231616452Y-73580674D01*
X231616452Y-73580674D02*
X249396452Y-73580674D01*
X249396452Y-73580674D02*
X249396452Y-40560674D01*
D13*
G36*
X246351087Y-48989704D02*
G01*
X246351087Y-49089704D01*
X246851087Y-49089704D01*
X246851087Y-48989704D01*
X246351087Y-48989704D01*
G37*
X246351087Y-48989704D02*
X246351087Y-49089704D01*
X246851087Y-49089704D01*
X246851087Y-48989704D01*
X246351087Y-48989704D01*
G36*
X246351087Y-48989704D02*
G01*
X246351087Y-49289704D01*
X246451087Y-49289704D01*
X246451087Y-48989704D01*
X246351087Y-48989704D01*
G37*
X246351087Y-48989704D02*
X246351087Y-49289704D01*
X246451087Y-49289704D01*
X246451087Y-48989704D01*
X246351087Y-48989704D01*
G36*
X246351087Y-49589704D02*
G01*
X246351087Y-49789704D01*
X246451087Y-49789704D01*
X246451087Y-49589704D01*
X246351087Y-49589704D01*
G37*
X246351087Y-49589704D02*
X246351087Y-49789704D01*
X246451087Y-49789704D01*
X246451087Y-49589704D01*
X246351087Y-49589704D01*
G36*
X246751087Y-48989704D02*
G01*
X246751087Y-49789704D01*
X246851087Y-49789704D01*
X246851087Y-48989704D01*
X246751087Y-48989704D01*
G37*
X246751087Y-48989704D02*
X246751087Y-49789704D01*
X246851087Y-49789704D01*
X246851087Y-48989704D01*
X246751087Y-48989704D01*
G36*
X246551087Y-49389704D02*
G01*
X246551087Y-49489704D01*
X246651087Y-49489704D01*
X246651087Y-49389704D01*
X246551087Y-49389704D01*
G37*
X246551087Y-49389704D02*
X246551087Y-49489704D01*
X246651087Y-49489704D01*
X246651087Y-49389704D01*
X246551087Y-49389704D01*
D12*
X234156452Y-43100674D02*
X234156452Y-45640674D01*
X234156452Y-45640674D02*
X231616452Y-45640674D01*
D13*
X246079785Y-49754483D02*
X245965499Y-49792578D01*
X245775023Y-49792578D01*
X245698832Y-49754483D01*
X245660737Y-49716388D01*
X245622642Y-49640197D01*
X245622642Y-49564007D01*
X245660737Y-49487816D01*
X245698832Y-49449721D01*
X245775023Y-49411626D01*
X245927404Y-49373531D01*
X246003594Y-49335435D01*
X246041690Y-49297340D01*
X246079785Y-49221150D01*
X246079785Y-49144959D01*
X246041690Y-49068769D01*
X246003594Y-49030674D01*
X245927404Y-48992578D01*
X245736928Y-48992578D01*
X245622642Y-49030674D01*
X245394071Y-48992578D02*
X244936928Y-48992578D01*
X245165499Y-49792578D02*
X245165499Y-48992578D01*
X239125056Y-43932578D02*
X238667913Y-43932578D01*
X238896484Y-44732578D02*
X238896484Y-43932578D01*
X238477437Y-43932578D02*
X237944103Y-44732578D01*
X237944103Y-43932578D02*
X238477437Y-44732578D01*
X237486960Y-43932578D02*
X237410770Y-43932578D01*
X237334580Y-43970674D01*
X237296484Y-44008769D01*
X237258389Y-44084959D01*
X237220294Y-44237340D01*
X237220294Y-44427816D01*
X237258389Y-44580197D01*
X237296484Y-44656388D01*
X237334580Y-44694483D01*
X237410770Y-44732578D01*
X237486960Y-44732578D01*
X237563151Y-44694483D01*
X237601246Y-44656388D01*
X237639341Y-44580197D01*
X237677437Y-44427816D01*
X237677437Y-44237340D01*
X237639341Y-44084959D01*
X237601246Y-44008769D01*
X237563151Y-43970674D01*
X237486960Y-43932578D01*
X236306008Y-43894483D02*
X236991722Y-44923054D01*
X236039341Y-44732578D02*
X236039341Y-43932578D01*
X235848865Y-43932578D01*
X235734580Y-43970674D01*
X235658389Y-44046864D01*
X235620294Y-44123054D01*
X235582199Y-44275435D01*
X235582199Y-44389721D01*
X235620294Y-44542102D01*
X235658389Y-44618293D01*
X235734580Y-44694483D01*
X235848865Y-44732578D01*
X236039341Y-44732578D01*
X235315532Y-43932578D02*
X234820294Y-43932578D01*
X235086960Y-44237340D01*
X234972675Y-44237340D01*
X234896484Y-44275435D01*
X234858389Y-44313531D01*
X234820294Y-44389721D01*
X234820294Y-44580197D01*
X234858389Y-44656388D01*
X234896484Y-44694483D01*
X234972675Y-44732578D01*
X235201246Y-44732578D01*
X235277437Y-44694483D01*
X235315532Y-44656388D01*
X246291261Y-69713531D02*
X246176975Y-69751626D01*
X246138880Y-69789721D01*
X246100785Y-69865912D01*
X246100785Y-69980197D01*
X246138880Y-70056388D01*
X246176975Y-70094483D01*
X246253166Y-70132578D01*
X246557928Y-70132578D01*
X246557928Y-69332578D01*
X246291261Y-69332578D01*
X246215071Y-69370674D01*
X246176975Y-69408769D01*
X246138880Y-69484959D01*
X246138880Y-69561150D01*
X246176975Y-69637340D01*
X246215071Y-69675435D01*
X246291261Y-69713531D01*
X246557928Y-69713531D01*
X245796023Y-69408769D02*
X245757928Y-69370674D01*
X245681737Y-69332578D01*
X245491261Y-69332578D01*
X245415071Y-69370674D01*
X245376975Y-69408769D01*
X245338880Y-69484959D01*
X245338880Y-69561150D01*
X245376975Y-69675435D01*
X245834118Y-70132578D01*
X245338880Y-70132578D01*
X246234118Y-62093531D02*
X246500785Y-62093531D01*
X246500785Y-62512578D02*
X246500785Y-61712578D01*
X246119832Y-61712578D01*
X245891261Y-61712578D02*
X245357928Y-61712578D01*
X245700785Y-62512578D01*
X246234118Y-59553531D02*
X246500785Y-59553531D01*
X246500785Y-59972578D02*
X246500785Y-59172578D01*
X246119832Y-59172578D01*
X245472213Y-59172578D02*
X245624594Y-59172578D01*
X245700785Y-59210674D01*
X245738880Y-59248769D01*
X245815071Y-59363054D01*
X245853166Y-59515435D01*
X245853166Y-59820197D01*
X245815071Y-59896388D01*
X245776975Y-59934483D01*
X245700785Y-59972578D01*
X245548404Y-59972578D01*
X245472213Y-59934483D01*
X245434118Y-59896388D01*
X245396023Y-59820197D01*
X245396023Y-59629721D01*
X245434118Y-59553531D01*
X245472213Y-59515435D01*
X245548404Y-59477340D01*
X245700785Y-59477340D01*
X245776975Y-59515435D01*
X245815071Y-59553531D01*
X245853166Y-59629721D01*
X246234118Y-57013531D02*
X246500785Y-57013531D01*
X246500785Y-57432578D02*
X246500785Y-56632578D01*
X246119832Y-56632578D01*
X245434118Y-56632578D02*
X245815071Y-56632578D01*
X245853166Y-57013531D01*
X245815071Y-56975435D01*
X245738880Y-56937340D01*
X245548404Y-56937340D01*
X245472213Y-56975435D01*
X245434118Y-57013531D01*
X245396023Y-57089721D01*
X245396023Y-57280197D01*
X245434118Y-57356388D01*
X245472213Y-57394483D01*
X245548404Y-57432578D01*
X245738880Y-57432578D01*
X245815071Y-57394483D01*
X245853166Y-57356388D01*
X246519832Y-44732578D02*
X246786499Y-44351626D01*
X246976975Y-44732578D02*
X246976975Y-43932578D01*
X246672213Y-43932578D01*
X246596023Y-43970674D01*
X246557928Y-44008769D01*
X246519832Y-44084959D01*
X246519832Y-44199245D01*
X246557928Y-44275435D01*
X246596023Y-44313531D01*
X246672213Y-44351626D01*
X246976975Y-44351626D01*
X246215071Y-44504007D02*
X245834118Y-44504007D01*
X246291261Y-44732578D02*
X246024594Y-43932578D01*
X245757928Y-44732578D01*
X245567452Y-43932578D02*
X245376975Y-44732578D01*
X245224594Y-44161150D01*
X245072213Y-44732578D01*
X244881737Y-43932578D01*
X246576975Y-46510674D02*
X246653166Y-46472578D01*
X246767452Y-46472578D01*
X246881737Y-46510674D01*
X246957928Y-46586864D01*
X246996023Y-46663054D01*
X247034118Y-46815435D01*
X247034118Y-46929721D01*
X246996023Y-47082102D01*
X246957928Y-47158293D01*
X246881737Y-47234483D01*
X246767452Y-47272578D01*
X246691261Y-47272578D01*
X246576975Y-47234483D01*
X246538880Y-47196388D01*
X246538880Y-46929721D01*
X246691261Y-46929721D01*
X246196023Y-47272578D02*
X246196023Y-46472578D01*
X245738880Y-47272578D01*
X245738880Y-46472578D01*
X245357928Y-47272578D02*
X245357928Y-46472578D01*
X245167452Y-46472578D01*
X245053166Y-46510674D01*
X244976975Y-46586864D01*
X244938880Y-46663054D01*
X244900785Y-46815435D01*
X244900785Y-46929721D01*
X244938880Y-47082102D01*
X244976975Y-47158293D01*
X245053166Y-47234483D01*
X245167452Y-47272578D01*
X245357928Y-47272578D01*
X247034118Y-51552578D02*
X246767452Y-52352578D01*
X246500785Y-51552578D01*
X245776975Y-52276388D02*
X245815071Y-52314483D01*
X245929356Y-52352578D01*
X246005547Y-52352578D01*
X246119832Y-52314483D01*
X246196023Y-52238293D01*
X246234118Y-52162102D01*
X246272213Y-52009721D01*
X246272213Y-51895435D01*
X246234118Y-51743054D01*
X246196023Y-51666864D01*
X246119832Y-51590674D01*
X246005547Y-51552578D01*
X245929356Y-51552578D01*
X245815071Y-51590674D01*
X245776975Y-51628769D01*
X244976975Y-52276388D02*
X245015071Y-52314483D01*
X245129356Y-52352578D01*
X245205547Y-52352578D01*
X245319832Y-52314483D01*
X245396023Y-52238293D01*
X245434118Y-52162102D01*
X245472213Y-52009721D01*
X245472213Y-51895435D01*
X245434118Y-51743054D01*
X245396023Y-51666864D01*
X245319832Y-51590674D01*
X245205547Y-51552578D01*
X245129356Y-51552578D01*
X245015071Y-51590674D01*
X244976975Y-51628769D01*
X246234118Y-54473531D02*
X246500785Y-54473531D01*
X246500785Y-54892578D02*
X246500785Y-54092578D01*
X246119832Y-54092578D01*
X245472213Y-54359245D02*
X245472213Y-54892578D01*
X245662690Y-54054483D02*
X245853166Y-54625912D01*
X245357928Y-54625912D01*
X246291261Y-64633531D02*
X246176975Y-64671626D01*
X246138880Y-64709721D01*
X246100785Y-64785912D01*
X246100785Y-64900197D01*
X246138880Y-64976388D01*
X246176975Y-65014483D01*
X246253166Y-65052578D01*
X246557928Y-65052578D01*
X246557928Y-64252578D01*
X246291261Y-64252578D01*
X246215071Y-64290674D01*
X246176975Y-64328769D01*
X246138880Y-64404959D01*
X246138880Y-64481150D01*
X246176975Y-64557340D01*
X246215071Y-64595435D01*
X246291261Y-64633531D01*
X246557928Y-64633531D01*
X245338880Y-65052578D02*
X245796023Y-65052578D01*
X245567452Y-65052578D02*
X245567452Y-64252578D01*
X245643642Y-64366864D01*
X245719832Y-64443054D01*
X245796023Y-64481150D01*
X246291261Y-67173531D02*
X246176975Y-67211626D01*
X246138880Y-67249721D01*
X246100785Y-67325912D01*
X246100785Y-67440197D01*
X246138880Y-67516388D01*
X246176975Y-67554483D01*
X246253166Y-67592578D01*
X246557928Y-67592578D01*
X246557928Y-66792578D01*
X246291261Y-66792578D01*
X246215071Y-66830674D01*
X246176975Y-66868769D01*
X246138880Y-66944959D01*
X246138880Y-67021150D01*
X246176975Y-67097340D01*
X246215071Y-67135435D01*
X246291261Y-67173531D01*
X246557928Y-67173531D01*
X245834118Y-66792578D02*
X245338880Y-66792578D01*
X245605547Y-67097340D01*
X245491261Y-67097340D01*
X245415071Y-67135435D01*
X245376975Y-67173531D01*
X245338880Y-67249721D01*
X245338880Y-67440197D01*
X245376975Y-67516388D01*
X245415071Y-67554483D01*
X245491261Y-67592578D01*
X245719832Y-67592578D01*
X245796023Y-67554483D01*
X245834118Y-67516388D01*
X246291261Y-72253531D02*
X246176975Y-72291626D01*
X246138880Y-72329721D01*
X246100785Y-72405912D01*
X246100785Y-72520197D01*
X246138880Y-72596388D01*
X246176975Y-72634483D01*
X246253166Y-72672578D01*
X246557928Y-72672578D01*
X246557928Y-71872578D01*
X246291261Y-71872578D01*
X246215071Y-71910674D01*
X246176975Y-71948769D01*
X246138880Y-72024959D01*
X246138880Y-72101150D01*
X246176975Y-72177340D01*
X246215071Y-72215435D01*
X246291261Y-72253531D01*
X246557928Y-72253531D01*
X245415071Y-71872578D02*
X245567452Y-71872578D01*
X245643642Y-71910674D01*
X245681737Y-71948769D01*
X245757928Y-72063054D01*
X245796023Y-72215435D01*
X245796023Y-72520197D01*
X245757928Y-72596388D01*
X245719832Y-72634483D01*
X245643642Y-72672578D01*
X245491261Y-72672578D01*
X245415071Y-72634483D01*
X245376975Y-72596388D01*
X245338880Y-72520197D01*
X245338880Y-72329721D01*
X245376975Y-72253531D01*
X245415071Y-72215435D01*
X245491261Y-72177340D01*
X245643642Y-72177340D01*
X245719832Y-72215435D01*
X245757928Y-72253531D01*
X245796023Y-72329721D01*
X235369261Y-72253531D02*
X235254975Y-72291626D01*
X235216880Y-72329721D01*
X235178785Y-72405912D01*
X235178785Y-72520197D01*
X235216880Y-72596388D01*
X235254975Y-72634483D01*
X235331166Y-72672578D01*
X235635928Y-72672578D01*
X235635928Y-71872578D01*
X235369261Y-71872578D01*
X235293071Y-71910674D01*
X235254975Y-71948769D01*
X235216880Y-72024959D01*
X235216880Y-72101150D01*
X235254975Y-72177340D01*
X235293071Y-72215435D01*
X235369261Y-72253531D01*
X235635928Y-72253531D01*
X234454975Y-71872578D02*
X234835928Y-71872578D01*
X234874023Y-72253531D01*
X234835928Y-72215435D01*
X234759737Y-72177340D01*
X234569261Y-72177340D01*
X234493071Y-72215435D01*
X234454975Y-72253531D01*
X234416880Y-72329721D01*
X234416880Y-72520197D01*
X234454975Y-72596388D01*
X234493071Y-72634483D01*
X234569261Y-72672578D01*
X234759737Y-72672578D01*
X234835928Y-72634483D01*
X234874023Y-72596388D01*
X235369261Y-69713531D02*
X235254975Y-69751626D01*
X235216880Y-69789721D01*
X235178785Y-69865912D01*
X235178785Y-69980197D01*
X235216880Y-70056388D01*
X235254975Y-70094483D01*
X235331166Y-70132578D01*
X235635928Y-70132578D01*
X235635928Y-69332578D01*
X235369261Y-69332578D01*
X235293071Y-69370674D01*
X235254975Y-69408769D01*
X235216880Y-69484959D01*
X235216880Y-69561150D01*
X235254975Y-69637340D01*
X235293071Y-69675435D01*
X235369261Y-69713531D01*
X235635928Y-69713531D01*
X234493071Y-69599245D02*
X234493071Y-70132578D01*
X234683547Y-69294483D02*
X234874023Y-69865912D01*
X234378785Y-69865912D01*
X235597832Y-67173531D02*
X235331166Y-67173531D01*
X235216880Y-67592578D02*
X235597832Y-67592578D01*
X235597832Y-66792578D01*
X235216880Y-66792578D01*
X234531166Y-66792578D02*
X234683547Y-66792578D01*
X234759737Y-66830674D01*
X234797832Y-66868769D01*
X234874023Y-66983054D01*
X234912118Y-67135435D01*
X234912118Y-67440197D01*
X234874023Y-67516388D01*
X234835928Y-67554483D01*
X234759737Y-67592578D01*
X234607356Y-67592578D01*
X234531166Y-67554483D01*
X234493071Y-67516388D01*
X234454975Y-67440197D01*
X234454975Y-67249721D01*
X234493071Y-67173531D01*
X234531166Y-67135435D01*
X234607356Y-67097340D01*
X234759737Y-67097340D01*
X234835928Y-67135435D01*
X234874023Y-67173531D01*
X234912118Y-67249721D01*
X235635928Y-65052578D02*
X235635928Y-64252578D01*
X235445452Y-64252578D01*
X235331166Y-64290674D01*
X235254975Y-64366864D01*
X235216880Y-64443054D01*
X235178785Y-64595435D01*
X235178785Y-64709721D01*
X235216880Y-64862102D01*
X235254975Y-64938293D01*
X235331166Y-65014483D01*
X235445452Y-65052578D01*
X235635928Y-65052578D01*
X234912118Y-64252578D02*
X234378785Y-64252578D01*
X234721642Y-65052578D01*
X235178785Y-62436388D02*
X235216880Y-62474483D01*
X235331166Y-62512578D01*
X235407356Y-62512578D01*
X235521642Y-62474483D01*
X235597832Y-62398293D01*
X235635928Y-62322102D01*
X235674023Y-62169721D01*
X235674023Y-62055435D01*
X235635928Y-61903054D01*
X235597832Y-61826864D01*
X235521642Y-61750674D01*
X235407356Y-61712578D01*
X235331166Y-61712578D01*
X235216880Y-61750674D01*
X235178785Y-61788769D01*
X234493071Y-61712578D02*
X234645452Y-61712578D01*
X234721642Y-61750674D01*
X234759737Y-61788769D01*
X234835928Y-61903054D01*
X234874023Y-62055435D01*
X234874023Y-62360197D01*
X234835928Y-62436388D01*
X234797832Y-62474483D01*
X234721642Y-62512578D01*
X234569261Y-62512578D01*
X234493071Y-62474483D01*
X234454975Y-62436388D01*
X234416880Y-62360197D01*
X234416880Y-62169721D01*
X234454975Y-62093531D01*
X234493071Y-62055435D01*
X234569261Y-62017340D01*
X234721642Y-62017340D01*
X234797832Y-62055435D01*
X234835928Y-62093531D01*
X234874023Y-62169721D01*
X235635928Y-59972578D02*
X235635928Y-59172578D01*
X235445452Y-59172578D01*
X235331166Y-59210674D01*
X235254975Y-59286864D01*
X235216880Y-59363054D01*
X235178785Y-59515435D01*
X235178785Y-59629721D01*
X235216880Y-59782102D01*
X235254975Y-59858293D01*
X235331166Y-59934483D01*
X235445452Y-59972578D01*
X235635928Y-59972578D01*
X234493071Y-59439245D02*
X234493071Y-59972578D01*
X234683547Y-59134483D02*
X234874023Y-59705912D01*
X234378785Y-59705912D01*
X235654975Y-49050674D02*
X235731166Y-49012578D01*
X235845452Y-49012578D01*
X235959737Y-49050674D01*
X236035928Y-49126864D01*
X236074023Y-49203054D01*
X236112118Y-49355435D01*
X236112118Y-49469721D01*
X236074023Y-49622102D01*
X236035928Y-49698293D01*
X235959737Y-49774483D01*
X235845452Y-49812578D01*
X235769261Y-49812578D01*
X235654975Y-49774483D01*
X235616880Y-49736388D01*
X235616880Y-49469721D01*
X235769261Y-49469721D01*
X235274023Y-49812578D02*
X235274023Y-49012578D01*
X234816880Y-49812578D01*
X234816880Y-49012578D01*
X234435928Y-49812578D02*
X234435928Y-49012578D01*
X234245452Y-49012578D01*
X234131166Y-49050674D01*
X234054975Y-49126864D01*
X234016880Y-49203054D01*
X233978785Y-49355435D01*
X233978785Y-49469721D01*
X234016880Y-49622102D01*
X234054975Y-49698293D01*
X234131166Y-49774483D01*
X234245452Y-49812578D01*
X234435928Y-49812578D01*
X235654975Y-51590674D02*
X235731166Y-51552578D01*
X235845452Y-51552578D01*
X235959737Y-51590674D01*
X236035928Y-51666864D01*
X236074023Y-51743054D01*
X236112118Y-51895435D01*
X236112118Y-52009721D01*
X236074023Y-52162102D01*
X236035928Y-52238293D01*
X235959737Y-52314483D01*
X235845452Y-52352578D01*
X235769261Y-52352578D01*
X235654975Y-52314483D01*
X235616880Y-52276388D01*
X235616880Y-52009721D01*
X235769261Y-52009721D01*
X235274023Y-52352578D02*
X235274023Y-51552578D01*
X234816880Y-52352578D01*
X234816880Y-51552578D01*
X234435928Y-52352578D02*
X234435928Y-51552578D01*
X234245452Y-51552578D01*
X234131166Y-51590674D01*
X234054975Y-51666864D01*
X234016880Y-51743054D01*
X233978785Y-51895435D01*
X233978785Y-52009721D01*
X234016880Y-52162102D01*
X234054975Y-52238293D01*
X234131166Y-52314483D01*
X234245452Y-52352578D01*
X234435928Y-52352578D01*
X235635928Y-54892578D02*
X235635928Y-54092578D01*
X235445452Y-54092578D01*
X235331166Y-54130674D01*
X235254975Y-54206864D01*
X235216880Y-54283054D01*
X235178785Y-54435435D01*
X235178785Y-54549721D01*
X235216880Y-54702102D01*
X235254975Y-54778293D01*
X235331166Y-54854483D01*
X235445452Y-54892578D01*
X235635928Y-54892578D01*
X234416880Y-54892578D02*
X234874023Y-54892578D01*
X234645452Y-54892578D02*
X234645452Y-54092578D01*
X234721642Y-54206864D01*
X234797832Y-54283054D01*
X234874023Y-54321150D01*
X235635928Y-57432578D02*
X235635928Y-56632578D01*
X235445452Y-56632578D01*
X235331166Y-56670674D01*
X235254975Y-56746864D01*
X235216880Y-56823054D01*
X235178785Y-56975435D01*
X235178785Y-57089721D01*
X235216880Y-57242102D01*
X235254975Y-57318293D01*
X235331166Y-57394483D01*
X235445452Y-57432578D01*
X235635928Y-57432578D01*
X234683547Y-56632578D02*
X234607356Y-56632578D01*
X234531166Y-56670674D01*
X234493071Y-56708769D01*
X234454975Y-56784959D01*
X234416880Y-56937340D01*
X234416880Y-57127816D01*
X234454975Y-57280197D01*
X234493071Y-57356388D01*
X234531166Y-57394483D01*
X234607356Y-57432578D01*
X234683547Y-57432578D01*
X234759737Y-57394483D01*
X234797832Y-57356388D01*
X234835928Y-57280197D01*
X234874023Y-57127816D01*
X234874023Y-56937340D01*
X234835928Y-56784959D01*
X234797832Y-56708769D01*
X234759737Y-56670674D01*
X234683547Y-56632578D01*
X235635928Y-47272578D02*
X235635928Y-46472578D01*
X235445452Y-46472578D01*
X235331166Y-46510674D01*
X235254975Y-46586864D01*
X235216880Y-46663054D01*
X235178785Y-46815435D01*
X235178785Y-46929721D01*
X235216880Y-47082102D01*
X235254975Y-47158293D01*
X235331166Y-47234483D01*
X235445452Y-47272578D01*
X235635928Y-47272578D01*
X234874023Y-46548769D02*
X234835928Y-46510674D01*
X234759737Y-46472578D01*
X234569261Y-46472578D01*
X234493071Y-46510674D01*
X234454975Y-46548769D01*
X234416880Y-46624959D01*
X234416880Y-46701150D01*
X234454975Y-46815435D01*
X234912118Y-47272578D01*
X234416880Y-47272578D01*
%TD*%
M02*
