%TF.GenerationSoftware,KiCad,Pcbnew,(5.1.9)-1*%
%TF.CreationDate,2021-06-01T11:13:14-07:00*%
%TF.ProjectId,dakkadakka,64616b6b-6164-4616-9b6b-612e6b696361,rev?*%
%TF.SameCoordinates,Original*%
%TF.FileFunction,Legend,Top*%
%TF.FilePolarity,Positive*%
%FSLAX46Y46*%
G04 Gerber Fmt 4.6, Leading zero omitted, Abs format (unit mm)*
G04 Created by KiCad (PCBNEW (5.1.9)-1) date 2021-06-01 11:13:14*
%MOMM*%
%LPD*%
G01*
G04 APERTURE LIST*
%ADD10C,0.350000*%
%ADD11C,0.120000*%
%ADD12C,0.150000*%
%ADD13C,0.381000*%
G04 APERTURE END LIST*
D10*
X147230746Y-75498341D02*
X147230746Y-73498341D01*
X147230746Y-75403103D02*
X147040270Y-75498341D01*
X146659318Y-75498341D01*
X146468841Y-75403103D01*
X146373603Y-75307865D01*
X146278365Y-75117389D01*
X146278365Y-74545960D01*
X146373603Y-74355484D01*
X146468841Y-74260246D01*
X146659318Y-74165008D01*
X147040270Y-74165008D01*
X147230746Y-74260246D01*
X149040270Y-75498341D02*
X149040270Y-74450722D01*
X148945032Y-74260246D01*
X148754556Y-74165008D01*
X148373603Y-74165008D01*
X148183127Y-74260246D01*
X149040270Y-75403103D02*
X148849794Y-75498341D01*
X148373603Y-75498341D01*
X148183127Y-75403103D01*
X148087889Y-75212627D01*
X148087889Y-75022151D01*
X148183127Y-74831675D01*
X148373603Y-74736437D01*
X148849794Y-74736437D01*
X149040270Y-74641199D01*
X149992651Y-75498341D02*
X149992651Y-73498341D01*
X150183127Y-74736437D02*
X150754556Y-75498341D01*
X150754556Y-74165008D02*
X149992651Y-74926913D01*
X151611699Y-75498341D02*
X151611699Y-73498341D01*
X151802175Y-74736437D02*
X152373603Y-75498341D01*
X152373603Y-74165008D02*
X151611699Y-74926913D01*
X154087889Y-75498341D02*
X154087889Y-74450722D01*
X153992651Y-74260246D01*
X153802175Y-74165008D01*
X153421222Y-74165008D01*
X153230746Y-74260246D01*
X154087889Y-75403103D02*
X153897413Y-75498341D01*
X153421222Y-75498341D01*
X153230746Y-75403103D01*
X153135508Y-75212627D01*
X153135508Y-75022151D01*
X153230746Y-74831675D01*
X153421222Y-74736437D01*
X153897413Y-74736437D01*
X154087889Y-74641199D01*
X155897413Y-75498341D02*
X155897413Y-73498341D01*
X155897413Y-75403103D02*
X155706937Y-75498341D01*
X155325984Y-75498341D01*
X155135508Y-75403103D01*
X155040270Y-75307865D01*
X154945032Y-75117389D01*
X154945032Y-74545960D01*
X155040270Y-74355484D01*
X155135508Y-74260246D01*
X155325984Y-74165008D01*
X155706937Y-74165008D01*
X155897413Y-74260246D01*
X157706937Y-75498341D02*
X157706937Y-74450722D01*
X157611699Y-74260246D01*
X157421222Y-74165008D01*
X157040270Y-74165008D01*
X156849794Y-74260246D01*
X157706937Y-75403103D02*
X157516460Y-75498341D01*
X157040270Y-75498341D01*
X156849794Y-75403103D01*
X156754556Y-75212627D01*
X156754556Y-75022151D01*
X156849794Y-74831675D01*
X157040270Y-74736437D01*
X157516460Y-74736437D01*
X157706937Y-74641199D01*
X158659318Y-75498341D02*
X158659318Y-73498341D01*
X158849794Y-74736437D02*
X159421222Y-75498341D01*
X159421222Y-74165008D02*
X158659318Y-74926913D01*
X160278365Y-75498341D02*
X160278365Y-73498341D01*
X160468841Y-74736437D02*
X161040270Y-75498341D01*
X161040270Y-74165008D02*
X160278365Y-74926913D01*
X162754556Y-75498341D02*
X162754556Y-74450722D01*
X162659318Y-74260246D01*
X162468841Y-74165008D01*
X162087889Y-74165008D01*
X161897413Y-74260246D01*
X162754556Y-75403103D02*
X162564080Y-75498341D01*
X162087889Y-75498341D01*
X161897413Y-75403103D01*
X161802175Y-75212627D01*
X161802175Y-75022151D01*
X161897413Y-74831675D01*
X162087889Y-74736437D01*
X162564080Y-74736437D01*
X162754556Y-74641199D01*
X145611699Y-78848341D02*
X145611699Y-76848341D01*
X145611699Y-77610246D02*
X145802175Y-77515008D01*
X146183127Y-77515008D01*
X146373603Y-77610246D01*
X146468841Y-77705484D01*
X146564080Y-77895960D01*
X146564080Y-78467389D01*
X146468841Y-78657865D01*
X146373603Y-78753103D01*
X146183127Y-78848341D01*
X145802175Y-78848341D01*
X145611699Y-78753103D01*
X147230746Y-77515008D02*
X147706937Y-78848341D01*
X148183127Y-77515008D02*
X147706937Y-78848341D01*
X147516460Y-79324532D01*
X147421222Y-79419770D01*
X147230746Y-79515008D01*
X148945032Y-78657865D02*
X149040270Y-78753103D01*
X148945032Y-78848341D01*
X148849794Y-78753103D01*
X148945032Y-78657865D01*
X148945032Y-78848341D01*
X148945032Y-77610246D02*
X149040270Y-77705484D01*
X148945032Y-77800722D01*
X148849794Y-77705484D01*
X148945032Y-77610246D01*
X148945032Y-77800722D01*
X151421222Y-78848341D02*
X151421222Y-76848341D01*
X151897413Y-76848341D01*
X152183127Y-76943580D01*
X152373603Y-77134056D01*
X152468841Y-77324532D01*
X152564080Y-77705484D01*
X152564080Y-77991199D01*
X152468841Y-78372151D01*
X152373603Y-78562627D01*
X152183127Y-78753103D01*
X151897413Y-78848341D01*
X151421222Y-78848341D01*
X153421222Y-78848341D02*
X153421222Y-77515008D01*
X153421222Y-77895960D02*
X153516460Y-77705484D01*
X153611699Y-77610246D01*
X153802175Y-77515008D01*
X153992651Y-77515008D01*
X154659318Y-78848341D02*
X154659318Y-76848341D01*
X154659318Y-77800722D02*
X155802175Y-77800722D01*
X155802175Y-78848341D02*
X155802175Y-76848341D01*
X156754556Y-78848341D02*
X156754556Y-77515008D01*
X156754556Y-76848341D02*
X156659318Y-76943580D01*
X156754556Y-77038818D01*
X156849794Y-76943580D01*
X156754556Y-76848341D01*
X156754556Y-77038818D01*
X158564080Y-77515008D02*
X158564080Y-79134056D01*
X158468841Y-79324532D01*
X158373603Y-79419770D01*
X158183127Y-79515008D01*
X157897413Y-79515008D01*
X157706937Y-79419770D01*
X158564080Y-78753103D02*
X158373603Y-78848341D01*
X157992651Y-78848341D01*
X157802175Y-78753103D01*
X157706937Y-78657865D01*
X157611699Y-78467389D01*
X157611699Y-77895960D01*
X157706937Y-77705484D01*
X157802175Y-77610246D01*
X157992651Y-77515008D01*
X158373603Y-77515008D01*
X158564080Y-77610246D01*
X159421222Y-78753103D02*
X159611699Y-78848341D01*
X159992651Y-78848341D01*
X160183127Y-78753103D01*
X160278365Y-78562627D01*
X160278365Y-78467389D01*
X160183127Y-78276913D01*
X159992651Y-78181675D01*
X159706937Y-78181675D01*
X159516460Y-78086437D01*
X159421222Y-77895960D01*
X159421222Y-77800722D01*
X159516460Y-77610246D01*
X159706937Y-77515008D01*
X159992651Y-77515008D01*
X160183127Y-77610246D01*
X161135508Y-78848341D02*
X161135508Y-76848341D01*
X161135508Y-77610246D02*
X161325984Y-77515008D01*
X161706937Y-77515008D01*
X161897413Y-77610246D01*
X161992651Y-77705484D01*
X162087889Y-77895960D01*
X162087889Y-78467389D01*
X161992651Y-78657865D01*
X161897413Y-78753103D01*
X161706937Y-78848341D01*
X161325984Y-78848341D01*
X161135508Y-78753103D01*
X162754556Y-77515008D02*
X163230746Y-78848341D01*
X163706937Y-77515008D02*
X163230746Y-78848341D01*
X163040270Y-79324532D01*
X162945032Y-79419770D01*
X162754556Y-79515008D01*
D11*
%TO.C,RESET1a1*%
X245607704Y-76946003D02*
X245607704Y-79026003D01*
X241437704Y-80706003D02*
X240947704Y-80216003D01*
X240167704Y-76946003D02*
X240167704Y-79026003D01*
X244337704Y-80706003D02*
X244827704Y-80216003D01*
X244337704Y-80706003D02*
X241437704Y-80706003D01*
X244337704Y-75266003D02*
X244827704Y-75756003D01*
X244337704Y-75266003D02*
X241437704Y-75266003D01*
X241437704Y-75266003D02*
X240947704Y-75756003D01*
D12*
%TO.C,D36*%
X267128850Y-88693698D02*
X268652850Y-88693698D01*
X267128850Y-88820698D02*
X268652850Y-88820698D01*
X268652850Y-88947698D02*
X267128850Y-88947698D01*
X267128850Y-89328698D02*
X268652850Y-89328698D01*
X268652850Y-89201698D02*
X267128850Y-89201698D01*
X267128850Y-89074698D02*
X268652850Y-89074698D01*
X267128850Y-84375698D02*
X267128850Y-84883698D01*
X268652850Y-84375698D02*
X267128850Y-84375698D01*
X268652850Y-89455698D02*
X268652850Y-84375698D01*
X267128850Y-89455698D02*
X268652850Y-89455698D01*
X267128850Y-84375698D02*
X267128850Y-89455698D01*
%TO.C,D35*%
X249269460Y-88693698D02*
X250793460Y-88693698D01*
X249269460Y-88820698D02*
X250793460Y-88820698D01*
X250793460Y-88947698D02*
X249269460Y-88947698D01*
X249269460Y-89328698D02*
X250793460Y-89328698D01*
X250793460Y-89201698D02*
X249269460Y-89201698D01*
X249269460Y-89074698D02*
X250793460Y-89074698D01*
X249269460Y-84375698D02*
X249269460Y-84883698D01*
X250793460Y-84375698D02*
X249269460Y-84375698D01*
X250793460Y-89455698D02*
X250793460Y-84375698D01*
X249269460Y-89455698D02*
X250793460Y-89455698D01*
X249269460Y-84375698D02*
X249269460Y-89455698D01*
%TO.C,D34*%
X230219444Y-88693698D02*
X231743444Y-88693698D01*
X230219444Y-88820698D02*
X231743444Y-88820698D01*
X231743444Y-88947698D02*
X230219444Y-88947698D01*
X230219444Y-89328698D02*
X231743444Y-89328698D01*
X231743444Y-89201698D02*
X230219444Y-89201698D01*
X230219444Y-89074698D02*
X231743444Y-89074698D01*
X230219444Y-84375698D02*
X230219444Y-84883698D01*
X231743444Y-84375698D02*
X230219444Y-84375698D01*
X231743444Y-89455698D02*
X231743444Y-84375698D01*
X230219444Y-89455698D02*
X231743444Y-89455698D01*
X230219444Y-84375698D02*
X230219444Y-89455698D01*
%TO.C,D33*%
X211169428Y-88693698D02*
X212693428Y-88693698D01*
X211169428Y-88820698D02*
X212693428Y-88820698D01*
X212693428Y-88947698D02*
X211169428Y-88947698D01*
X211169428Y-89328698D02*
X212693428Y-89328698D01*
X212693428Y-89201698D02*
X211169428Y-89201698D01*
X211169428Y-89074698D02*
X212693428Y-89074698D01*
X211169428Y-84375698D02*
X211169428Y-84883698D01*
X212693428Y-84375698D02*
X211169428Y-84375698D01*
X212693428Y-89455698D02*
X212693428Y-84375698D01*
X211169428Y-89455698D02*
X212693428Y-89455698D01*
X211169428Y-84375698D02*
X211169428Y-89455698D01*
%TO.C,D32*%
X192119412Y-88693698D02*
X193643412Y-88693698D01*
X192119412Y-88820698D02*
X193643412Y-88820698D01*
X193643412Y-88947698D02*
X192119412Y-88947698D01*
X192119412Y-89328698D02*
X193643412Y-89328698D01*
X193643412Y-89201698D02*
X192119412Y-89201698D01*
X192119412Y-89074698D02*
X193643412Y-89074698D01*
X192119412Y-84375698D02*
X192119412Y-84883698D01*
X193643412Y-84375698D02*
X192119412Y-84375698D01*
X193643412Y-89455698D02*
X193643412Y-84375698D01*
X192119412Y-89455698D02*
X193643412Y-89455698D01*
X192119412Y-84375698D02*
X192119412Y-89455698D01*
%TO.C,D31*%
X173069396Y-88693698D02*
X174593396Y-88693698D01*
X173069396Y-88820698D02*
X174593396Y-88820698D01*
X174593396Y-88947698D02*
X173069396Y-88947698D01*
X173069396Y-89328698D02*
X174593396Y-89328698D01*
X174593396Y-89201698D02*
X173069396Y-89201698D01*
X173069396Y-89074698D02*
X174593396Y-89074698D01*
X173069396Y-84375698D02*
X173069396Y-84883698D01*
X174593396Y-84375698D02*
X173069396Y-84375698D01*
X174593396Y-89455698D02*
X174593396Y-84375698D01*
X173069396Y-89455698D02*
X174593396Y-89455698D01*
X173069396Y-84375698D02*
X173069396Y-89455698D01*
%TO.C,D30*%
X134969364Y-88693698D02*
X136493364Y-88693698D01*
X134969364Y-88820698D02*
X136493364Y-88820698D01*
X136493364Y-88947698D02*
X134969364Y-88947698D01*
X134969364Y-89328698D02*
X136493364Y-89328698D01*
X136493364Y-89201698D02*
X134969364Y-89201698D01*
X134969364Y-89074698D02*
X136493364Y-89074698D01*
X134969364Y-84375698D02*
X134969364Y-84883698D01*
X136493364Y-84375698D02*
X134969364Y-84375698D01*
X136493364Y-89455698D02*
X136493364Y-84375698D01*
X134969364Y-89455698D02*
X136493364Y-89455698D01*
X134969364Y-84375698D02*
X134969364Y-89455698D01*
%TO.C,D29*%
X115919348Y-88693698D02*
X117443348Y-88693698D01*
X115919348Y-88820698D02*
X117443348Y-88820698D01*
X117443348Y-88947698D02*
X115919348Y-88947698D01*
X115919348Y-89328698D02*
X117443348Y-89328698D01*
X117443348Y-89201698D02*
X115919348Y-89201698D01*
X115919348Y-89074698D02*
X117443348Y-89074698D01*
X115919348Y-84375698D02*
X115919348Y-84883698D01*
X117443348Y-84375698D02*
X115919348Y-84375698D01*
X117443348Y-89455698D02*
X117443348Y-84375698D01*
X115919348Y-89455698D02*
X117443348Y-89455698D01*
X115919348Y-84375698D02*
X115919348Y-89455698D01*
%TO.C,D28*%
X96869332Y-88693698D02*
X98393332Y-88693698D01*
X96869332Y-88820698D02*
X98393332Y-88820698D01*
X98393332Y-88947698D02*
X96869332Y-88947698D01*
X96869332Y-89328698D02*
X98393332Y-89328698D01*
X98393332Y-89201698D02*
X96869332Y-89201698D01*
X96869332Y-89074698D02*
X98393332Y-89074698D01*
X96869332Y-84375698D02*
X96869332Y-84883698D01*
X98393332Y-84375698D02*
X96869332Y-84375698D01*
X98393332Y-89455698D02*
X98393332Y-84375698D01*
X96869332Y-89455698D02*
X98393332Y-89455698D01*
X96869332Y-84375698D02*
X96869332Y-89455698D01*
%TO.C,D27*%
X77819316Y-88693698D02*
X79343316Y-88693698D01*
X77819316Y-88820698D02*
X79343316Y-88820698D01*
X79343316Y-88947698D02*
X77819316Y-88947698D01*
X77819316Y-89328698D02*
X79343316Y-89328698D01*
X79343316Y-89201698D02*
X77819316Y-89201698D01*
X77819316Y-89074698D02*
X79343316Y-89074698D01*
X77819316Y-84375698D02*
X77819316Y-84883698D01*
X79343316Y-84375698D02*
X77819316Y-84375698D01*
X79343316Y-89455698D02*
X79343316Y-84375698D01*
X77819316Y-89455698D02*
X79343316Y-89455698D01*
X77819316Y-84375698D02*
X77819316Y-89455698D01*
%TO.C,D26*%
X59959926Y-88693698D02*
X61483926Y-88693698D01*
X59959926Y-88820698D02*
X61483926Y-88820698D01*
X61483926Y-88947698D02*
X59959926Y-88947698D01*
X59959926Y-89328698D02*
X61483926Y-89328698D01*
X61483926Y-89201698D02*
X59959926Y-89201698D01*
X59959926Y-89074698D02*
X61483926Y-89074698D01*
X59959926Y-84375698D02*
X59959926Y-84883698D01*
X61483926Y-84375698D02*
X59959926Y-84375698D01*
X61483926Y-89455698D02*
X61483926Y-84375698D01*
X59959926Y-89455698D02*
X61483926Y-89455698D01*
X59959926Y-84375698D02*
X59959926Y-89455698D01*
%TO.C,D25*%
X57578674Y-88693698D02*
X59102674Y-88693698D01*
X57578674Y-88820698D02*
X59102674Y-88820698D01*
X59102674Y-88947698D02*
X57578674Y-88947698D01*
X57578674Y-89328698D02*
X59102674Y-89328698D01*
X59102674Y-89201698D02*
X57578674Y-89201698D01*
X57578674Y-89074698D02*
X59102674Y-89074698D01*
X57578674Y-84375698D02*
X57578674Y-84883698D01*
X59102674Y-84375698D02*
X57578674Y-84375698D01*
X59102674Y-89455698D02*
X59102674Y-84375698D01*
X57578674Y-89455698D02*
X59102674Y-89455698D01*
X57578674Y-84375698D02*
X57578674Y-89455698D01*
%TO.C,D24*%
X267128850Y-69643682D02*
X268652850Y-69643682D01*
X267128850Y-69770682D02*
X268652850Y-69770682D01*
X268652850Y-69897682D02*
X267128850Y-69897682D01*
X267128850Y-70278682D02*
X268652850Y-70278682D01*
X268652850Y-70151682D02*
X267128850Y-70151682D01*
X267128850Y-70024682D02*
X268652850Y-70024682D01*
X267128850Y-65325682D02*
X267128850Y-65833682D01*
X268652850Y-65325682D02*
X267128850Y-65325682D01*
X268652850Y-70405682D02*
X268652850Y-65325682D01*
X267128850Y-70405682D02*
X268652850Y-70405682D01*
X267128850Y-65325682D02*
X267128850Y-70405682D01*
%TO.C,D23*%
X250460086Y-69643682D02*
X251984086Y-69643682D01*
X250460086Y-69770682D02*
X251984086Y-69770682D01*
X251984086Y-69897682D02*
X250460086Y-69897682D01*
X250460086Y-70278682D02*
X251984086Y-70278682D01*
X251984086Y-70151682D02*
X250460086Y-70151682D01*
X250460086Y-70024682D02*
X251984086Y-70024682D01*
X250460086Y-65325682D02*
X250460086Y-65833682D01*
X251984086Y-65325682D02*
X250460086Y-65325682D01*
X251984086Y-70405682D02*
X251984086Y-65325682D01*
X250460086Y-70405682D02*
X251984086Y-70405682D01*
X250460086Y-65325682D02*
X250460086Y-70405682D01*
%TO.C,D22*%
X211169428Y-69643682D02*
X212693428Y-69643682D01*
X211169428Y-69770682D02*
X212693428Y-69770682D01*
X212693428Y-69897682D02*
X211169428Y-69897682D01*
X211169428Y-70278682D02*
X212693428Y-70278682D01*
X212693428Y-70151682D02*
X211169428Y-70151682D01*
X211169428Y-70024682D02*
X212693428Y-70024682D01*
X211169428Y-65325682D02*
X211169428Y-65833682D01*
X212693428Y-65325682D02*
X211169428Y-65325682D01*
X212693428Y-70405682D02*
X212693428Y-65325682D01*
X211169428Y-70405682D02*
X212693428Y-70405682D01*
X211169428Y-65325682D02*
X211169428Y-70405682D01*
%TO.C,D21*%
X192119412Y-69643682D02*
X193643412Y-69643682D01*
X192119412Y-69770682D02*
X193643412Y-69770682D01*
X193643412Y-69897682D02*
X192119412Y-69897682D01*
X192119412Y-70278682D02*
X193643412Y-70278682D01*
X193643412Y-70151682D02*
X192119412Y-70151682D01*
X192119412Y-70024682D02*
X193643412Y-70024682D01*
X192119412Y-65325682D02*
X192119412Y-65833682D01*
X193643412Y-65325682D02*
X192119412Y-65325682D01*
X193643412Y-70405682D02*
X193643412Y-65325682D01*
X192119412Y-70405682D02*
X193643412Y-70405682D01*
X192119412Y-65325682D02*
X192119412Y-70405682D01*
%TO.C,D20*%
X173069396Y-69643682D02*
X174593396Y-69643682D01*
X173069396Y-69770682D02*
X174593396Y-69770682D01*
X174593396Y-69897682D02*
X173069396Y-69897682D01*
X173069396Y-70278682D02*
X174593396Y-70278682D01*
X174593396Y-70151682D02*
X173069396Y-70151682D01*
X173069396Y-70024682D02*
X174593396Y-70024682D01*
X173069396Y-65325682D02*
X173069396Y-65833682D01*
X174593396Y-65325682D02*
X173069396Y-65325682D01*
X174593396Y-70405682D02*
X174593396Y-65325682D01*
X173069396Y-70405682D02*
X174593396Y-70405682D01*
X173069396Y-65325682D02*
X173069396Y-70405682D01*
%TO.C,D19*%
X154019380Y-69643682D02*
X155543380Y-69643682D01*
X154019380Y-69770682D02*
X155543380Y-69770682D01*
X155543380Y-69897682D02*
X154019380Y-69897682D01*
X154019380Y-70278682D02*
X155543380Y-70278682D01*
X155543380Y-70151682D02*
X154019380Y-70151682D01*
X154019380Y-70024682D02*
X155543380Y-70024682D01*
X154019380Y-65325682D02*
X154019380Y-65833682D01*
X155543380Y-65325682D02*
X154019380Y-65325682D01*
X155543380Y-70405682D02*
X155543380Y-65325682D01*
X154019380Y-70405682D02*
X155543380Y-70405682D01*
X154019380Y-65325682D02*
X154019380Y-70405682D01*
%TO.C,D18*%
X134969364Y-69643682D02*
X136493364Y-69643682D01*
X134969364Y-69770682D02*
X136493364Y-69770682D01*
X136493364Y-69897682D02*
X134969364Y-69897682D01*
X134969364Y-70278682D02*
X136493364Y-70278682D01*
X136493364Y-70151682D02*
X134969364Y-70151682D01*
X134969364Y-70024682D02*
X136493364Y-70024682D01*
X134969364Y-65325682D02*
X134969364Y-65833682D01*
X136493364Y-65325682D02*
X134969364Y-65325682D01*
X136493364Y-70405682D02*
X136493364Y-65325682D01*
X134969364Y-70405682D02*
X136493364Y-70405682D01*
X134969364Y-65325682D02*
X134969364Y-70405682D01*
%TO.C,D17*%
X115919348Y-69643682D02*
X117443348Y-69643682D01*
X115919348Y-69770682D02*
X117443348Y-69770682D01*
X117443348Y-69897682D02*
X115919348Y-69897682D01*
X115919348Y-70278682D02*
X117443348Y-70278682D01*
X117443348Y-70151682D02*
X115919348Y-70151682D01*
X115919348Y-70024682D02*
X117443348Y-70024682D01*
X115919348Y-65325682D02*
X115919348Y-65833682D01*
X117443348Y-65325682D02*
X115919348Y-65325682D01*
X117443348Y-70405682D02*
X117443348Y-65325682D01*
X115919348Y-70405682D02*
X117443348Y-70405682D01*
X115919348Y-65325682D02*
X115919348Y-70405682D01*
%TO.C,D16*%
X96869332Y-69643682D02*
X98393332Y-69643682D01*
X96869332Y-69770682D02*
X98393332Y-69770682D01*
X98393332Y-69897682D02*
X96869332Y-69897682D01*
X96869332Y-70278682D02*
X98393332Y-70278682D01*
X98393332Y-70151682D02*
X96869332Y-70151682D01*
X96869332Y-70024682D02*
X98393332Y-70024682D01*
X96869332Y-65325682D02*
X96869332Y-65833682D01*
X98393332Y-65325682D02*
X96869332Y-65325682D01*
X98393332Y-70405682D02*
X98393332Y-65325682D01*
X96869332Y-70405682D02*
X98393332Y-70405682D01*
X96869332Y-65325682D02*
X96869332Y-70405682D01*
%TO.C,D15*%
X77819316Y-69643682D02*
X79343316Y-69643682D01*
X77819316Y-69770682D02*
X79343316Y-69770682D01*
X79343316Y-69897682D02*
X77819316Y-69897682D01*
X77819316Y-70278682D02*
X79343316Y-70278682D01*
X79343316Y-70151682D02*
X77819316Y-70151682D01*
X77819316Y-70024682D02*
X79343316Y-70024682D01*
X77819316Y-65325682D02*
X77819316Y-65833682D01*
X79343316Y-65325682D02*
X77819316Y-65325682D01*
X79343316Y-70405682D02*
X79343316Y-65325682D01*
X77819316Y-70405682D02*
X79343316Y-70405682D01*
X77819316Y-65325682D02*
X77819316Y-70405682D01*
%TO.C,D14*%
X59959926Y-69643682D02*
X61483926Y-69643682D01*
X59959926Y-69770682D02*
X61483926Y-69770682D01*
X61483926Y-69897682D02*
X59959926Y-69897682D01*
X59959926Y-70278682D02*
X61483926Y-70278682D01*
X61483926Y-70151682D02*
X59959926Y-70151682D01*
X59959926Y-70024682D02*
X61483926Y-70024682D01*
X59959926Y-65325682D02*
X59959926Y-65833682D01*
X61483926Y-65325682D02*
X59959926Y-65325682D01*
X61483926Y-70405682D02*
X61483926Y-65325682D01*
X59959926Y-70405682D02*
X61483926Y-70405682D01*
X59959926Y-65325682D02*
X59959926Y-70405682D01*
%TO.C,D13*%
X57578674Y-69643682D02*
X59102674Y-69643682D01*
X57578674Y-69770682D02*
X59102674Y-69770682D01*
X59102674Y-69897682D02*
X57578674Y-69897682D01*
X57578674Y-70278682D02*
X59102674Y-70278682D01*
X59102674Y-70151682D02*
X57578674Y-70151682D01*
X57578674Y-70024682D02*
X59102674Y-70024682D01*
X57578674Y-65325682D02*
X57578674Y-65833682D01*
X59102674Y-65325682D02*
X57578674Y-65325682D01*
X59102674Y-70405682D02*
X59102674Y-65325682D01*
X57578674Y-70405682D02*
X59102674Y-70405682D01*
X57578674Y-65325682D02*
X57578674Y-70405682D01*
%TO.C,D12*%
X267128850Y-50593666D02*
X268652850Y-50593666D01*
X267128850Y-50720666D02*
X268652850Y-50720666D01*
X268652850Y-50847666D02*
X267128850Y-50847666D01*
X267128850Y-51228666D02*
X268652850Y-51228666D01*
X268652850Y-51101666D02*
X267128850Y-51101666D01*
X267128850Y-50974666D02*
X268652850Y-50974666D01*
X267128850Y-46275666D02*
X267128850Y-46783666D01*
X268652850Y-46275666D02*
X267128850Y-46275666D01*
X268652850Y-51355666D02*
X268652850Y-46275666D01*
X267128850Y-51355666D02*
X268652850Y-51355666D01*
X267128850Y-46275666D02*
X267128850Y-51355666D01*
%TO.C,D11*%
X250460086Y-50593666D02*
X251984086Y-50593666D01*
X250460086Y-50720666D02*
X251984086Y-50720666D01*
X251984086Y-50847666D02*
X250460086Y-50847666D01*
X250460086Y-51228666D02*
X251984086Y-51228666D01*
X251984086Y-51101666D02*
X250460086Y-51101666D01*
X250460086Y-50974666D02*
X251984086Y-50974666D01*
X250460086Y-46275666D02*
X250460086Y-46783666D01*
X251984086Y-46275666D02*
X250460086Y-46275666D01*
X251984086Y-51355666D02*
X251984086Y-46275666D01*
X250460086Y-51355666D02*
X251984086Y-51355666D01*
X250460086Y-46275666D02*
X250460086Y-51355666D01*
%TO.C,D10*%
X211169428Y-50593666D02*
X212693428Y-50593666D01*
X211169428Y-50720666D02*
X212693428Y-50720666D01*
X212693428Y-50847666D02*
X211169428Y-50847666D01*
X211169428Y-51228666D02*
X212693428Y-51228666D01*
X212693428Y-51101666D02*
X211169428Y-51101666D01*
X211169428Y-50974666D02*
X212693428Y-50974666D01*
X211169428Y-46275666D02*
X211169428Y-46783666D01*
X212693428Y-46275666D02*
X211169428Y-46275666D01*
X212693428Y-51355666D02*
X212693428Y-46275666D01*
X211169428Y-51355666D02*
X212693428Y-51355666D01*
X211169428Y-46275666D02*
X211169428Y-51355666D01*
%TO.C,D9*%
X192119412Y-50593666D02*
X193643412Y-50593666D01*
X192119412Y-50720666D02*
X193643412Y-50720666D01*
X193643412Y-50847666D02*
X192119412Y-50847666D01*
X192119412Y-51228666D02*
X193643412Y-51228666D01*
X193643412Y-51101666D02*
X192119412Y-51101666D01*
X192119412Y-50974666D02*
X193643412Y-50974666D01*
X192119412Y-46275666D02*
X192119412Y-46783666D01*
X193643412Y-46275666D02*
X192119412Y-46275666D01*
X193643412Y-51355666D02*
X193643412Y-46275666D01*
X192119412Y-51355666D02*
X193643412Y-51355666D01*
X192119412Y-46275666D02*
X192119412Y-51355666D01*
%TO.C,D8*%
X173069396Y-50593666D02*
X174593396Y-50593666D01*
X173069396Y-50720666D02*
X174593396Y-50720666D01*
X174593396Y-50847666D02*
X173069396Y-50847666D01*
X173069396Y-51228666D02*
X174593396Y-51228666D01*
X174593396Y-51101666D02*
X173069396Y-51101666D01*
X173069396Y-50974666D02*
X174593396Y-50974666D01*
X173069396Y-46275666D02*
X173069396Y-46783666D01*
X174593396Y-46275666D02*
X173069396Y-46275666D01*
X174593396Y-51355666D02*
X174593396Y-46275666D01*
X173069396Y-51355666D02*
X174593396Y-51355666D01*
X173069396Y-46275666D02*
X173069396Y-51355666D01*
%TO.C,D7*%
X154019380Y-50593666D02*
X155543380Y-50593666D01*
X154019380Y-50720666D02*
X155543380Y-50720666D01*
X155543380Y-50847666D02*
X154019380Y-50847666D01*
X154019380Y-51228666D02*
X155543380Y-51228666D01*
X155543380Y-51101666D02*
X154019380Y-51101666D01*
X154019380Y-50974666D02*
X155543380Y-50974666D01*
X154019380Y-46275666D02*
X154019380Y-46783666D01*
X155543380Y-46275666D02*
X154019380Y-46275666D01*
X155543380Y-51355666D02*
X155543380Y-46275666D01*
X154019380Y-51355666D02*
X155543380Y-51355666D01*
X154019380Y-46275666D02*
X154019380Y-51355666D01*
%TO.C,D6*%
X134969364Y-50593666D02*
X136493364Y-50593666D01*
X134969364Y-50720666D02*
X136493364Y-50720666D01*
X136493364Y-50847666D02*
X134969364Y-50847666D01*
X134969364Y-51228666D02*
X136493364Y-51228666D01*
X136493364Y-51101666D02*
X134969364Y-51101666D01*
X134969364Y-50974666D02*
X136493364Y-50974666D01*
X134969364Y-46275666D02*
X134969364Y-46783666D01*
X136493364Y-46275666D02*
X134969364Y-46275666D01*
X136493364Y-51355666D02*
X136493364Y-46275666D01*
X134969364Y-51355666D02*
X136493364Y-51355666D01*
X134969364Y-46275666D02*
X134969364Y-51355666D01*
%TO.C,D5*%
X115919348Y-50593666D02*
X117443348Y-50593666D01*
X115919348Y-50720666D02*
X117443348Y-50720666D01*
X117443348Y-50847666D02*
X115919348Y-50847666D01*
X115919348Y-51228666D02*
X117443348Y-51228666D01*
X117443348Y-51101666D02*
X115919348Y-51101666D01*
X115919348Y-50974666D02*
X117443348Y-50974666D01*
X115919348Y-46275666D02*
X115919348Y-46783666D01*
X117443348Y-46275666D02*
X115919348Y-46275666D01*
X117443348Y-51355666D02*
X117443348Y-46275666D01*
X115919348Y-51355666D02*
X117443348Y-51355666D01*
X115919348Y-46275666D02*
X115919348Y-51355666D01*
%TO.C,D4*%
X96869332Y-50593666D02*
X98393332Y-50593666D01*
X96869332Y-50720666D02*
X98393332Y-50720666D01*
X98393332Y-50847666D02*
X96869332Y-50847666D01*
X96869332Y-51228666D02*
X98393332Y-51228666D01*
X98393332Y-51101666D02*
X96869332Y-51101666D01*
X96869332Y-50974666D02*
X98393332Y-50974666D01*
X96869332Y-46275666D02*
X96869332Y-46783666D01*
X98393332Y-46275666D02*
X96869332Y-46275666D01*
X98393332Y-51355666D02*
X98393332Y-46275666D01*
X96869332Y-51355666D02*
X98393332Y-51355666D01*
X96869332Y-46275666D02*
X96869332Y-51355666D01*
%TO.C,D3*%
X77819316Y-50593666D02*
X79343316Y-50593666D01*
X77819316Y-50720666D02*
X79343316Y-50720666D01*
X79343316Y-50847666D02*
X77819316Y-50847666D01*
X77819316Y-51228666D02*
X79343316Y-51228666D01*
X79343316Y-51101666D02*
X77819316Y-51101666D01*
X77819316Y-50974666D02*
X79343316Y-50974666D01*
X77819316Y-46275666D02*
X77819316Y-46783666D01*
X79343316Y-46275666D02*
X77819316Y-46275666D01*
X79343316Y-51355666D02*
X79343316Y-46275666D01*
X77819316Y-51355666D02*
X79343316Y-51355666D01*
X77819316Y-46275666D02*
X77819316Y-51355666D01*
%TO.C,D2*%
X59959926Y-50593666D02*
X61483926Y-50593666D01*
X59959926Y-50720666D02*
X61483926Y-50720666D01*
X61483926Y-50847666D02*
X59959926Y-50847666D01*
X59959926Y-51228666D02*
X61483926Y-51228666D01*
X61483926Y-51101666D02*
X59959926Y-51101666D01*
X59959926Y-50974666D02*
X61483926Y-50974666D01*
X59959926Y-46275666D02*
X59959926Y-46783666D01*
X61483926Y-46275666D02*
X59959926Y-46275666D01*
X61483926Y-51355666D02*
X61483926Y-46275666D01*
X59959926Y-51355666D02*
X61483926Y-51355666D01*
X59959926Y-46275666D02*
X59959926Y-51355666D01*
%TO.C,D1*%
X57578674Y-50593666D02*
X59102674Y-50593666D01*
X57578674Y-50720666D02*
X59102674Y-50720666D01*
X59102674Y-50847666D02*
X57578674Y-50847666D01*
X57578674Y-51228666D02*
X59102674Y-51228666D01*
X59102674Y-51101666D02*
X57578674Y-51101666D01*
X57578674Y-50974666D02*
X59102674Y-50974666D01*
X57578674Y-46275666D02*
X57578674Y-46783666D01*
X59102674Y-46275666D02*
X57578674Y-46275666D01*
X59102674Y-51355666D02*
X59102674Y-46275666D01*
X57578674Y-51355666D02*
X59102674Y-51355666D01*
X57578674Y-46275666D02*
X57578674Y-51355666D01*
D13*
%TO.C,PM1*%
X234156452Y-43100674D02*
X231616452Y-43100674D01*
X231616452Y-40560674D02*
X231616452Y-43100674D01*
X249396452Y-40560674D02*
X231616452Y-40560674D01*
X249396452Y-43100674D02*
X249396452Y-40560674D01*
D12*
G36*
X245438020Y-49580034D02*
G01*
X245438020Y-49780034D01*
X245338020Y-49780034D01*
X245338020Y-49580034D01*
X245438020Y-49580034D01*
G37*
X245438020Y-49580034D02*
X245438020Y-49780034D01*
X245338020Y-49780034D01*
X245338020Y-49580034D01*
X245438020Y-49580034D01*
G36*
X245038020Y-48980034D02*
G01*
X245038020Y-49780034D01*
X244938020Y-49780034D01*
X244938020Y-48980034D01*
X245038020Y-48980034D01*
G37*
X245038020Y-48980034D02*
X245038020Y-49780034D01*
X244938020Y-49780034D01*
X244938020Y-48980034D01*
X245038020Y-48980034D01*
G36*
X245438020Y-48980034D02*
G01*
X245438020Y-49080034D01*
X244938020Y-49080034D01*
X244938020Y-48980034D01*
X245438020Y-48980034D01*
G37*
X245438020Y-48980034D02*
X245438020Y-49080034D01*
X244938020Y-49080034D01*
X244938020Y-48980034D01*
X245438020Y-48980034D01*
G36*
X245238020Y-49380034D02*
G01*
X245238020Y-49480034D01*
X245138020Y-49480034D01*
X245138020Y-49380034D01*
X245238020Y-49380034D01*
G37*
X245238020Y-49380034D02*
X245238020Y-49480034D01*
X245138020Y-49480034D01*
X245138020Y-49380034D01*
X245238020Y-49380034D01*
G36*
X245438020Y-48980034D02*
G01*
X245438020Y-49280034D01*
X245338020Y-49280034D01*
X245338020Y-48980034D01*
X245438020Y-48980034D01*
G37*
X245438020Y-48980034D02*
X245438020Y-49280034D01*
X245338020Y-49280034D01*
X245338020Y-48980034D01*
X245438020Y-48980034D01*
D13*
X234156452Y-45640674D02*
X231616452Y-45640674D01*
X234156452Y-43100674D02*
X234156452Y-45640674D01*
X249396452Y-73580674D02*
X249396452Y-43100674D01*
X231616452Y-73580674D02*
X249396452Y-73580674D01*
X231616452Y-43100674D02*
X231616452Y-73580674D01*
D12*
X234744103Y-43932578D02*
X235201246Y-43932578D01*
X234972675Y-44732578D02*
X234972675Y-43932578D01*
X235391722Y-43932578D02*
X235925056Y-44732578D01*
X235925056Y-43932578D02*
X235391722Y-44732578D01*
X236382199Y-43932578D02*
X236458389Y-43932578D01*
X236534580Y-43970674D01*
X236572675Y-44008769D01*
X236610770Y-44084959D01*
X236648865Y-44237340D01*
X236648865Y-44427816D01*
X236610770Y-44580197D01*
X236572675Y-44656388D01*
X236534580Y-44694483D01*
X236458389Y-44732578D01*
X236382199Y-44732578D01*
X236306008Y-44694483D01*
X236267913Y-44656388D01*
X236229818Y-44580197D01*
X236191722Y-44427816D01*
X236191722Y-44237340D01*
X236229818Y-44084959D01*
X236267913Y-44008769D01*
X236306008Y-43970674D01*
X236382199Y-43932578D01*
X237563151Y-43894483D02*
X236877437Y-44923054D01*
X237829818Y-44732578D02*
X237829818Y-43932578D01*
X238020294Y-43932578D01*
X238134580Y-43970674D01*
X238210770Y-44046864D01*
X238248865Y-44123054D01*
X238286960Y-44275435D01*
X238286960Y-44389721D01*
X238248865Y-44542102D01*
X238210770Y-44618293D01*
X238134580Y-44694483D01*
X238020294Y-44732578D01*
X237829818Y-44732578D01*
X238553627Y-43932578D02*
X239048865Y-43932578D01*
X238782199Y-44237340D01*
X238896484Y-44237340D01*
X238972675Y-44275435D01*
X239010770Y-44313531D01*
X239048865Y-44389721D01*
X239048865Y-44580197D01*
X239010770Y-44656388D01*
X238972675Y-44694483D01*
X238896484Y-44732578D01*
X238667913Y-44732578D01*
X238591722Y-44694483D01*
X238553627Y-44656388D01*
X234454975Y-47272578D02*
X234454975Y-46472578D01*
X234645452Y-46472578D01*
X234759737Y-46510674D01*
X234835928Y-46586864D01*
X234874023Y-46663054D01*
X234912118Y-46815435D01*
X234912118Y-46929721D01*
X234874023Y-47082102D01*
X234835928Y-47158293D01*
X234759737Y-47234483D01*
X234645452Y-47272578D01*
X234454975Y-47272578D01*
X235216880Y-46548769D02*
X235254975Y-46510674D01*
X235331166Y-46472578D01*
X235521642Y-46472578D01*
X235597832Y-46510674D01*
X235635928Y-46548769D01*
X235674023Y-46624959D01*
X235674023Y-46701150D01*
X235635928Y-46815435D01*
X235178785Y-47272578D01*
X235674023Y-47272578D01*
X234454975Y-57432578D02*
X234454975Y-56632578D01*
X234645452Y-56632578D01*
X234759737Y-56670674D01*
X234835928Y-56746864D01*
X234874023Y-56823054D01*
X234912118Y-56975435D01*
X234912118Y-57089721D01*
X234874023Y-57242102D01*
X234835928Y-57318293D01*
X234759737Y-57394483D01*
X234645452Y-57432578D01*
X234454975Y-57432578D01*
X235407356Y-56632578D02*
X235483547Y-56632578D01*
X235559737Y-56670674D01*
X235597832Y-56708769D01*
X235635928Y-56784959D01*
X235674023Y-56937340D01*
X235674023Y-57127816D01*
X235635928Y-57280197D01*
X235597832Y-57356388D01*
X235559737Y-57394483D01*
X235483547Y-57432578D01*
X235407356Y-57432578D01*
X235331166Y-57394483D01*
X235293071Y-57356388D01*
X235254975Y-57280197D01*
X235216880Y-57127816D01*
X235216880Y-56937340D01*
X235254975Y-56784959D01*
X235293071Y-56708769D01*
X235331166Y-56670674D01*
X235407356Y-56632578D01*
X234454975Y-54892578D02*
X234454975Y-54092578D01*
X234645452Y-54092578D01*
X234759737Y-54130674D01*
X234835928Y-54206864D01*
X234874023Y-54283054D01*
X234912118Y-54435435D01*
X234912118Y-54549721D01*
X234874023Y-54702102D01*
X234835928Y-54778293D01*
X234759737Y-54854483D01*
X234645452Y-54892578D01*
X234454975Y-54892578D01*
X235674023Y-54892578D02*
X235216880Y-54892578D01*
X235445452Y-54892578D02*
X235445452Y-54092578D01*
X235369261Y-54206864D01*
X235293071Y-54283054D01*
X235216880Y-54321150D01*
X234435928Y-51590674D02*
X234359737Y-51552578D01*
X234245452Y-51552578D01*
X234131166Y-51590674D01*
X234054975Y-51666864D01*
X234016880Y-51743054D01*
X233978785Y-51895435D01*
X233978785Y-52009721D01*
X234016880Y-52162102D01*
X234054975Y-52238293D01*
X234131166Y-52314483D01*
X234245452Y-52352578D01*
X234321642Y-52352578D01*
X234435928Y-52314483D01*
X234474023Y-52276388D01*
X234474023Y-52009721D01*
X234321642Y-52009721D01*
X234816880Y-52352578D02*
X234816880Y-51552578D01*
X235274023Y-52352578D01*
X235274023Y-51552578D01*
X235654975Y-52352578D02*
X235654975Y-51552578D01*
X235845452Y-51552578D01*
X235959737Y-51590674D01*
X236035928Y-51666864D01*
X236074023Y-51743054D01*
X236112118Y-51895435D01*
X236112118Y-52009721D01*
X236074023Y-52162102D01*
X236035928Y-52238293D01*
X235959737Y-52314483D01*
X235845452Y-52352578D01*
X235654975Y-52352578D01*
X234435928Y-49050674D02*
X234359737Y-49012578D01*
X234245452Y-49012578D01*
X234131166Y-49050674D01*
X234054975Y-49126864D01*
X234016880Y-49203054D01*
X233978785Y-49355435D01*
X233978785Y-49469721D01*
X234016880Y-49622102D01*
X234054975Y-49698293D01*
X234131166Y-49774483D01*
X234245452Y-49812578D01*
X234321642Y-49812578D01*
X234435928Y-49774483D01*
X234474023Y-49736388D01*
X234474023Y-49469721D01*
X234321642Y-49469721D01*
X234816880Y-49812578D02*
X234816880Y-49012578D01*
X235274023Y-49812578D01*
X235274023Y-49012578D01*
X235654975Y-49812578D02*
X235654975Y-49012578D01*
X235845452Y-49012578D01*
X235959737Y-49050674D01*
X236035928Y-49126864D01*
X236074023Y-49203054D01*
X236112118Y-49355435D01*
X236112118Y-49469721D01*
X236074023Y-49622102D01*
X236035928Y-49698293D01*
X235959737Y-49774483D01*
X235845452Y-49812578D01*
X235654975Y-49812578D01*
X234454975Y-59972578D02*
X234454975Y-59172578D01*
X234645452Y-59172578D01*
X234759737Y-59210674D01*
X234835928Y-59286864D01*
X234874023Y-59363054D01*
X234912118Y-59515435D01*
X234912118Y-59629721D01*
X234874023Y-59782102D01*
X234835928Y-59858293D01*
X234759737Y-59934483D01*
X234645452Y-59972578D01*
X234454975Y-59972578D01*
X235597832Y-59439245D02*
X235597832Y-59972578D01*
X235407356Y-59134483D02*
X235216880Y-59705912D01*
X235712118Y-59705912D01*
X234912118Y-62436388D02*
X234874023Y-62474483D01*
X234759737Y-62512578D01*
X234683547Y-62512578D01*
X234569261Y-62474483D01*
X234493071Y-62398293D01*
X234454975Y-62322102D01*
X234416880Y-62169721D01*
X234416880Y-62055435D01*
X234454975Y-61903054D01*
X234493071Y-61826864D01*
X234569261Y-61750674D01*
X234683547Y-61712578D01*
X234759737Y-61712578D01*
X234874023Y-61750674D01*
X234912118Y-61788769D01*
X235597832Y-61712578D02*
X235445452Y-61712578D01*
X235369261Y-61750674D01*
X235331166Y-61788769D01*
X235254975Y-61903054D01*
X235216880Y-62055435D01*
X235216880Y-62360197D01*
X235254975Y-62436388D01*
X235293071Y-62474483D01*
X235369261Y-62512578D01*
X235521642Y-62512578D01*
X235597832Y-62474483D01*
X235635928Y-62436388D01*
X235674023Y-62360197D01*
X235674023Y-62169721D01*
X235635928Y-62093531D01*
X235597832Y-62055435D01*
X235521642Y-62017340D01*
X235369261Y-62017340D01*
X235293071Y-62055435D01*
X235254975Y-62093531D01*
X235216880Y-62169721D01*
X234454975Y-65052578D02*
X234454975Y-64252578D01*
X234645452Y-64252578D01*
X234759737Y-64290674D01*
X234835928Y-64366864D01*
X234874023Y-64443054D01*
X234912118Y-64595435D01*
X234912118Y-64709721D01*
X234874023Y-64862102D01*
X234835928Y-64938293D01*
X234759737Y-65014483D01*
X234645452Y-65052578D01*
X234454975Y-65052578D01*
X235178785Y-64252578D02*
X235712118Y-64252578D01*
X235369261Y-65052578D01*
X234493071Y-67173531D02*
X234759737Y-67173531D01*
X234874023Y-67592578D02*
X234493071Y-67592578D01*
X234493071Y-66792578D01*
X234874023Y-66792578D01*
X235559737Y-66792578D02*
X235407356Y-66792578D01*
X235331166Y-66830674D01*
X235293071Y-66868769D01*
X235216880Y-66983054D01*
X235178785Y-67135435D01*
X235178785Y-67440197D01*
X235216880Y-67516388D01*
X235254975Y-67554483D01*
X235331166Y-67592578D01*
X235483547Y-67592578D01*
X235559737Y-67554483D01*
X235597832Y-67516388D01*
X235635928Y-67440197D01*
X235635928Y-67249721D01*
X235597832Y-67173531D01*
X235559737Y-67135435D01*
X235483547Y-67097340D01*
X235331166Y-67097340D01*
X235254975Y-67135435D01*
X235216880Y-67173531D01*
X235178785Y-67249721D01*
X234721642Y-69713531D02*
X234835928Y-69751626D01*
X234874023Y-69789721D01*
X234912118Y-69865912D01*
X234912118Y-69980197D01*
X234874023Y-70056388D01*
X234835928Y-70094483D01*
X234759737Y-70132578D01*
X234454975Y-70132578D01*
X234454975Y-69332578D01*
X234721642Y-69332578D01*
X234797832Y-69370674D01*
X234835928Y-69408769D01*
X234874023Y-69484959D01*
X234874023Y-69561150D01*
X234835928Y-69637340D01*
X234797832Y-69675435D01*
X234721642Y-69713531D01*
X234454975Y-69713531D01*
X235597832Y-69599245D02*
X235597832Y-70132578D01*
X235407356Y-69294483D02*
X235216880Y-69865912D01*
X235712118Y-69865912D01*
X234721642Y-72253531D02*
X234835928Y-72291626D01*
X234874023Y-72329721D01*
X234912118Y-72405912D01*
X234912118Y-72520197D01*
X234874023Y-72596388D01*
X234835928Y-72634483D01*
X234759737Y-72672578D01*
X234454975Y-72672578D01*
X234454975Y-71872578D01*
X234721642Y-71872578D01*
X234797832Y-71910674D01*
X234835928Y-71948769D01*
X234874023Y-72024959D01*
X234874023Y-72101150D01*
X234835928Y-72177340D01*
X234797832Y-72215435D01*
X234721642Y-72253531D01*
X234454975Y-72253531D01*
X235635928Y-71872578D02*
X235254975Y-71872578D01*
X235216880Y-72253531D01*
X235254975Y-72215435D01*
X235331166Y-72177340D01*
X235521642Y-72177340D01*
X235597832Y-72215435D01*
X235635928Y-72253531D01*
X235674023Y-72329721D01*
X235674023Y-72520197D01*
X235635928Y-72596388D01*
X235597832Y-72634483D01*
X235521642Y-72672578D01*
X235331166Y-72672578D01*
X235254975Y-72634483D01*
X235216880Y-72596388D01*
X245643642Y-72253531D02*
X245757928Y-72291626D01*
X245796023Y-72329721D01*
X245834118Y-72405912D01*
X245834118Y-72520197D01*
X245796023Y-72596388D01*
X245757928Y-72634483D01*
X245681737Y-72672578D01*
X245376975Y-72672578D01*
X245376975Y-71872578D01*
X245643642Y-71872578D01*
X245719832Y-71910674D01*
X245757928Y-71948769D01*
X245796023Y-72024959D01*
X245796023Y-72101150D01*
X245757928Y-72177340D01*
X245719832Y-72215435D01*
X245643642Y-72253531D01*
X245376975Y-72253531D01*
X246519832Y-71872578D02*
X246367452Y-71872578D01*
X246291261Y-71910674D01*
X246253166Y-71948769D01*
X246176975Y-72063054D01*
X246138880Y-72215435D01*
X246138880Y-72520197D01*
X246176975Y-72596388D01*
X246215071Y-72634483D01*
X246291261Y-72672578D01*
X246443642Y-72672578D01*
X246519832Y-72634483D01*
X246557928Y-72596388D01*
X246596023Y-72520197D01*
X246596023Y-72329721D01*
X246557928Y-72253531D01*
X246519832Y-72215435D01*
X246443642Y-72177340D01*
X246291261Y-72177340D01*
X246215071Y-72215435D01*
X246176975Y-72253531D01*
X246138880Y-72329721D01*
X245643642Y-67173531D02*
X245757928Y-67211626D01*
X245796023Y-67249721D01*
X245834118Y-67325912D01*
X245834118Y-67440197D01*
X245796023Y-67516388D01*
X245757928Y-67554483D01*
X245681737Y-67592578D01*
X245376975Y-67592578D01*
X245376975Y-66792578D01*
X245643642Y-66792578D01*
X245719832Y-66830674D01*
X245757928Y-66868769D01*
X245796023Y-66944959D01*
X245796023Y-67021150D01*
X245757928Y-67097340D01*
X245719832Y-67135435D01*
X245643642Y-67173531D01*
X245376975Y-67173531D01*
X246100785Y-66792578D02*
X246596023Y-66792578D01*
X246329356Y-67097340D01*
X246443642Y-67097340D01*
X246519832Y-67135435D01*
X246557928Y-67173531D01*
X246596023Y-67249721D01*
X246596023Y-67440197D01*
X246557928Y-67516388D01*
X246519832Y-67554483D01*
X246443642Y-67592578D01*
X246215071Y-67592578D01*
X246138880Y-67554483D01*
X246100785Y-67516388D01*
X245643642Y-64633531D02*
X245757928Y-64671626D01*
X245796023Y-64709721D01*
X245834118Y-64785912D01*
X245834118Y-64900197D01*
X245796023Y-64976388D01*
X245757928Y-65014483D01*
X245681737Y-65052578D01*
X245376975Y-65052578D01*
X245376975Y-64252578D01*
X245643642Y-64252578D01*
X245719832Y-64290674D01*
X245757928Y-64328769D01*
X245796023Y-64404959D01*
X245796023Y-64481150D01*
X245757928Y-64557340D01*
X245719832Y-64595435D01*
X245643642Y-64633531D01*
X245376975Y-64633531D01*
X246596023Y-65052578D02*
X246138880Y-65052578D01*
X246367452Y-65052578D02*
X246367452Y-64252578D01*
X246291261Y-64366864D01*
X246215071Y-64443054D01*
X246138880Y-64481150D01*
X245700785Y-54473531D02*
X245434118Y-54473531D01*
X245434118Y-54892578D02*
X245434118Y-54092578D01*
X245815071Y-54092578D01*
X246462690Y-54359245D02*
X246462690Y-54892578D01*
X246272213Y-54054483D02*
X246081737Y-54625912D01*
X246576975Y-54625912D01*
X244900785Y-51552578D02*
X245167452Y-52352578D01*
X245434118Y-51552578D01*
X246157928Y-52276388D02*
X246119832Y-52314483D01*
X246005547Y-52352578D01*
X245929356Y-52352578D01*
X245815071Y-52314483D01*
X245738880Y-52238293D01*
X245700785Y-52162102D01*
X245662690Y-52009721D01*
X245662690Y-51895435D01*
X245700785Y-51743054D01*
X245738880Y-51666864D01*
X245815071Y-51590674D01*
X245929356Y-51552578D01*
X246005547Y-51552578D01*
X246119832Y-51590674D01*
X246157928Y-51628769D01*
X246957928Y-52276388D02*
X246919832Y-52314483D01*
X246805547Y-52352578D01*
X246729356Y-52352578D01*
X246615071Y-52314483D01*
X246538880Y-52238293D01*
X246500785Y-52162102D01*
X246462690Y-52009721D01*
X246462690Y-51895435D01*
X246500785Y-51743054D01*
X246538880Y-51666864D01*
X246615071Y-51590674D01*
X246729356Y-51552578D01*
X246805547Y-51552578D01*
X246919832Y-51590674D01*
X246957928Y-51628769D01*
X245706238Y-49744483D02*
X245820524Y-49782578D01*
X246011000Y-49782578D01*
X246087191Y-49744483D01*
X246125286Y-49706388D01*
X246163381Y-49630197D01*
X246163381Y-49554007D01*
X246125286Y-49477816D01*
X246087191Y-49439721D01*
X246011000Y-49401626D01*
X245858619Y-49363531D01*
X245782429Y-49325435D01*
X245744333Y-49287340D01*
X245706238Y-49211150D01*
X245706238Y-49134959D01*
X245744333Y-49058769D01*
X245782429Y-49020674D01*
X245858619Y-48982578D01*
X246049095Y-48982578D01*
X246163381Y-49020674D01*
X246391952Y-48982578D02*
X246849095Y-48982578D01*
X246620524Y-49782578D02*
X246620524Y-48982578D01*
X245357928Y-46510674D02*
X245281737Y-46472578D01*
X245167452Y-46472578D01*
X245053166Y-46510674D01*
X244976975Y-46586864D01*
X244938880Y-46663054D01*
X244900785Y-46815435D01*
X244900785Y-46929721D01*
X244938880Y-47082102D01*
X244976975Y-47158293D01*
X245053166Y-47234483D01*
X245167452Y-47272578D01*
X245243642Y-47272578D01*
X245357928Y-47234483D01*
X245396023Y-47196388D01*
X245396023Y-46929721D01*
X245243642Y-46929721D01*
X245738880Y-47272578D02*
X245738880Y-46472578D01*
X246196023Y-47272578D01*
X246196023Y-46472578D01*
X246576975Y-47272578D02*
X246576975Y-46472578D01*
X246767452Y-46472578D01*
X246881737Y-46510674D01*
X246957928Y-46586864D01*
X246996023Y-46663054D01*
X247034118Y-46815435D01*
X247034118Y-46929721D01*
X246996023Y-47082102D01*
X246957928Y-47158293D01*
X246881737Y-47234483D01*
X246767452Y-47272578D01*
X246576975Y-47272578D01*
X245415071Y-44732578D02*
X245148404Y-44351626D01*
X244957928Y-44732578D02*
X244957928Y-43932578D01*
X245262690Y-43932578D01*
X245338880Y-43970674D01*
X245376975Y-44008769D01*
X245415071Y-44084959D01*
X245415071Y-44199245D01*
X245376975Y-44275435D01*
X245338880Y-44313531D01*
X245262690Y-44351626D01*
X244957928Y-44351626D01*
X245719832Y-44504007D02*
X246100785Y-44504007D01*
X245643642Y-44732578D02*
X245910309Y-43932578D01*
X246176975Y-44732578D01*
X246367452Y-43932578D02*
X246557928Y-44732578D01*
X246710309Y-44161150D01*
X246862690Y-44732578D01*
X247053166Y-43932578D01*
X245700785Y-57013531D02*
X245434118Y-57013531D01*
X245434118Y-57432578D02*
X245434118Y-56632578D01*
X245815071Y-56632578D01*
X246500785Y-56632578D02*
X246119832Y-56632578D01*
X246081737Y-57013531D01*
X246119832Y-56975435D01*
X246196023Y-56937340D01*
X246386499Y-56937340D01*
X246462690Y-56975435D01*
X246500785Y-57013531D01*
X246538880Y-57089721D01*
X246538880Y-57280197D01*
X246500785Y-57356388D01*
X246462690Y-57394483D01*
X246386499Y-57432578D01*
X246196023Y-57432578D01*
X246119832Y-57394483D01*
X246081737Y-57356388D01*
X245700785Y-59553531D02*
X245434118Y-59553531D01*
X245434118Y-59972578D02*
X245434118Y-59172578D01*
X245815071Y-59172578D01*
X246462690Y-59172578D02*
X246310309Y-59172578D01*
X246234118Y-59210674D01*
X246196023Y-59248769D01*
X246119832Y-59363054D01*
X246081737Y-59515435D01*
X246081737Y-59820197D01*
X246119832Y-59896388D01*
X246157928Y-59934483D01*
X246234118Y-59972578D01*
X246386499Y-59972578D01*
X246462690Y-59934483D01*
X246500785Y-59896388D01*
X246538880Y-59820197D01*
X246538880Y-59629721D01*
X246500785Y-59553531D01*
X246462690Y-59515435D01*
X246386499Y-59477340D01*
X246234118Y-59477340D01*
X246157928Y-59515435D01*
X246119832Y-59553531D01*
X246081737Y-59629721D01*
X245700785Y-62093531D02*
X245434118Y-62093531D01*
X245434118Y-62512578D02*
X245434118Y-61712578D01*
X245815071Y-61712578D01*
X246043642Y-61712578D02*
X246576975Y-61712578D01*
X246234118Y-62512578D01*
X245643642Y-69713531D02*
X245757928Y-69751626D01*
X245796023Y-69789721D01*
X245834118Y-69865912D01*
X245834118Y-69980197D01*
X245796023Y-70056388D01*
X245757928Y-70094483D01*
X245681737Y-70132578D01*
X245376975Y-70132578D01*
X245376975Y-69332578D01*
X245643642Y-69332578D01*
X245719832Y-69370674D01*
X245757928Y-69408769D01*
X245796023Y-69484959D01*
X245796023Y-69561150D01*
X245757928Y-69637340D01*
X245719832Y-69675435D01*
X245643642Y-69713531D01*
X245376975Y-69713531D01*
X246138880Y-69408769D02*
X246176975Y-69370674D01*
X246253166Y-69332578D01*
X246443642Y-69332578D01*
X246519832Y-69370674D01*
X246557928Y-69408769D01*
X246596023Y-69484959D01*
X246596023Y-69561150D01*
X246557928Y-69675435D01*
X246100785Y-70132578D01*
X246596023Y-70132578D01*
%TD*%
M02*
