M48
; DRILL file {KiCad (5.1.9)-1} date 06/01/21 10:03:11
; FORMAT={-:-/ absolute / inch / decimal}
; #@! TF.CreationDate,2021-06-01T10:03:11-07:00
; #@! TF.GenerationSoftware,Kicad,Pcbnew,(5.1.9)-1
; #@! TF.FileFunction,Plated,1,2,PTH
FMAT,2
INCH
T1C0.0157
T2C0.0394
T3C0.0430
T4C0.0579
%
G90
G05
T1
X6.3188Y-2.2045
X7.0688Y-2.2346
X7.8188Y-2.2529
X8.5688Y-2.2753
X9.3188Y-2.1281
X9.7215Y-2.9407
T2
X2.2969Y-1.7683
X2.2969Y-2.0754
X2.2969Y-2.5183
X2.2969Y-2.8254
X2.2969Y-3.2683
X2.2969Y-3.5754
X2.3906Y-1.7683
X2.3906Y-2.0754
X2.3906Y-2.5183
X2.3906Y-2.8254
X2.3906Y-3.2683
X2.3906Y-3.5754
X3.0938Y-1.7683
X3.0938Y-2.0754
X3.0938Y-2.5183
X3.0938Y-2.8254
X3.0938Y-3.2683
X3.0938Y-3.5754
X3.8438Y-1.7683
X3.8438Y-2.0754
X3.8438Y-2.5183
X3.8438Y-2.8254
X3.8438Y-3.2683
X3.8438Y-3.5754
X4.5938Y-1.7683
X4.5938Y-2.0754
X4.5938Y-2.5183
X4.5938Y-2.8254
X4.5938Y-3.2683
X4.5938Y-3.5754
X5.3438Y-1.7683
X5.3438Y-2.0754
X5.3438Y-2.5183
X5.3438Y-2.8254
X5.3438Y-3.2683
X5.3438Y-3.5754
X6.0938Y-1.7683
X6.0938Y-2.0754
X6.0938Y-2.5183
X6.0938Y-2.8254
X6.8438Y-1.7683
X6.8438Y-2.0754
X6.8438Y-2.5183
X6.8438Y-2.8254
X6.8438Y-3.2683
X6.8438Y-3.5754
X7.5938Y-1.7683
X7.5938Y-2.0754
X7.5938Y-2.5183
X7.5938Y-2.8254
X7.5938Y-3.2683
X7.5938Y-3.5754
X8.3438Y-1.7683
X8.3438Y-2.0754
X8.3438Y-2.5183
X8.3438Y-2.8254
X8.3438Y-3.2683
X8.3438Y-3.5754
X9.0938Y-3.2683
X9.0938Y-3.5754
X9.8438Y-3.2683
X9.8438Y-3.5754
X9.8906Y-1.7683
X9.8906Y-2.0754
X9.8906Y-2.5183
X9.8906Y-2.8254
X10.5469Y-1.7683
X10.5469Y-2.0754
X10.5469Y-2.5183
X10.5469Y-2.8254
X10.5469Y-3.2683
X10.5469Y-3.5754
T3
X9.1688Y-1.7469
X9.1688Y-1.8469
X9.1688Y-1.9469
X9.1688Y-2.0469
X9.1688Y-2.1469
X9.1688Y-2.2469
X9.1688Y-2.3469
X9.1688Y-2.4469
X9.1688Y-2.5469
X9.1688Y-2.6469
X9.1688Y-2.7469
X9.1688Y-2.8469
X9.7688Y-1.7469
X9.7688Y-1.8469
X9.7688Y-1.9469
X9.7688Y-2.0469
X9.7688Y-2.1469
X9.7688Y-2.2469
X9.7688Y-2.3469
X9.7688Y-2.4469
X9.7688Y-2.5469
X9.7688Y-2.6469
X9.7688Y-2.7469
X9.7688Y-2.8469
T4
X1.8188Y-1.8688
X1.8188Y-2.6188
X1.8188Y-3.3688
X2.0688Y-1.7688
X2.0688Y-2.5188
X2.0688Y-3.2688
X2.5688Y-1.8688
X2.5688Y-2.6188
X2.5688Y-3.3688
X2.8188Y-1.7688
X2.8188Y-2.5188
X2.8188Y-3.2688
X3.3188Y-1.8688
X3.3188Y-2.6188
X3.3188Y-3.3688
X3.5688Y-1.7688
X3.5688Y-2.5188
X3.5688Y-3.2688
X4.0688Y-1.8688
X4.0688Y-2.6188
X4.0688Y-3.3688
X4.3188Y-1.7688
X4.3188Y-2.5188
X4.3188Y-3.2688
X4.8188Y-1.8688
X4.8188Y-2.6188
X4.8188Y-3.3688
X5.0688Y-1.7688
X5.0688Y-2.5188
X5.0688Y-3.2688
X5.5688Y-1.8688
X5.5688Y-2.6188
X5.5688Y-3.3688
X5.8188Y-1.7688
X5.8188Y-2.5188
X5.8188Y-3.2688
X5.9438Y-3.3688
X6.1938Y-3.2688
X6.3188Y-1.8688
X6.3188Y-2.6188
X6.3188Y-3.3688
X6.5688Y-1.7688
X6.5688Y-2.5188
X6.5688Y-3.2688
X7.0688Y-1.8688
X7.0688Y-2.6188
X7.0688Y-3.3688
X7.3188Y-1.7688
X7.3188Y-2.5188
X7.3188Y-3.2688
X7.8188Y-1.8688
X7.8188Y-2.6188
X7.8188Y-3.3688
X8.0688Y-1.7688
X8.0688Y-2.5188
X8.0688Y-3.2688
X8.5688Y-1.8688
X8.5688Y-2.6188
X8.5688Y-3.3688
X8.8188Y-1.7688
X8.8188Y-2.5188
X8.8188Y-3.2688
X9.3188Y-1.8688
X9.3188Y-2.6188
X9.3188Y-3.3688
X9.5688Y-1.7688
X9.5688Y-2.5188
X9.5688Y-3.2688
X10.0688Y-1.8688
X10.0688Y-2.6188
X10.0688Y-3.3688
X10.3188Y-1.7688
X10.3188Y-2.5188
X10.3188Y-3.2688
T0
M30
